  0
SECTION
  2
HEADER
  9
$ACADVER
  1
AC1009
  0
ENDSEC
  0
SECTION
  2
ENTITIES
  0
CIRCLE
  5
90
  8
Layer_0
  62
0
  10
564.93604
  20
166
  30
0
  40
1.7
  0
CIRCLE
  5
90
  8
Layer_0
  62
0
  10
494.53601
  20
275.60001
  30
0
  40
1.75
  0
CIRCLE
  5
90
  8
Layer_0
  62
0
  10
463.436
  20
33.5
  30
0
  40
1.7
  0
CIRCLE
  5
90
  8
Layer_0
  62
0
  10
432.336
  20
280
  30
0
  40
1.75
  0
CIRCLE
  5
90
  8
Layer_0
  62
0
  10
361.93597
  20
166
  30
0
  40
1.7
  0
CIRCLE
  5
90
  8
Layer_0
  62
0
  10
564.93604
  20
434
  30
0
  40
1.7
  0
CIRCLE
  5
90
  8
Layer_0
  62
0
  10
494.53601
  20
324.39999
  30
0
  40
1.75
  0
CIRCLE
  5
90
  8
Layer_0
  62
0
  10
508.686
  20
550.00012
  30
0
  40
1.75
  0
CIRCLE
  5
90
  8
Layer_0
  62
0
  10
491.686
  20
550.00012
  30
0
  40
1.75
  0
CIRCLE
  5
90
  8
Layer_0
  62
0
  10
432.336
  20
320
  30
0
  40
1.75
  0
CIRCLE
  5
90
  8
Layer_0
  62
0
  10
361.93597
  20
434
  30
0
  40
1.7
  0
CIRCLE
  5
90
  8
Layer_0
  62
0
  10
463.436
  20
566.50012
  30
0
  40
1.7
  0
CIRCLE
  5
90
  8
Layer_0
  62
0
  10
435.186
  20
550.00012
  30
0
  40
1.75
  0
CIRCLE
  5
90
  8
Layer_0
  62
0
  10
418.186
  20
550.00012
  30
0
  40
1.75
  0
POLYLINE
  5
90
  8
Layer_0
  62
0
  66
1
  10
0
  20
0
  30
0
  0
VERTEX
  5
90
  8
Layer_0
  10
341.67603
  20
248.565
  0
VERTEX
  5
91
  8
Layer_0
  10
341.67603
  20
354.76498
  0
VERTEX
  5
92
  8
Layer_0
  10
338.67603
  20
354.76498
  0
VERTEX
  5
93
  8
Layer_0
  10
338.67603
  20
460.56497
  0
VERTEX
  5
94
  8
Layer_0
  10
341.67603
  20
460.56497
  0
VERTEX
  5
95
  8
Layer_0
  10
341.67603
  20
566.66498
  0
VERTEX
  5
96
  8
Layer_0
  10
338.67603
  20
566.66498
  0
VERTEX
  5
97
  8
Layer_0
  10
338.67603
  20
569.66498
  0
VERTEX
  5
98
  8
Layer_0
  10
298.57605
  20
569.66498
  0
VERTEX
  5
99
  8
Layer_0
  10
298.57605
  20
566.66498
  0
VERTEX
  5
9a
  8
Layer_0
  10
258.776
  20
566.66498
  0
VERTEX
  5
9b
  8
Layer_0
  10
258.776
  20
569.66498
  0
VERTEX
  5
9c
  8
Layer_0
  10
218.57605
  20
569.66498
  0
VERTEX
  5
9d
  8
Layer_0
  10
218.57605
  20
566.66498
  0
VERTEX
  5
9e
  8
Layer_0
  10
178.77612
  20
566.66498
  0
VERTEX
  5
9f
  8
Layer_0
  10
178.77612
  20
569.66498
  0
VERTEX
  5
a0
  8
Layer_0
  10
138.67615
  20
569.66498
  0
VERTEX
  5
a1
  8
Layer_0
  10
138.67615
  20
566.66498
  0
VERTEX
  5
a2
  8
Layer_0
  10
135.67615
  20
566.66498
  0
VERTEX
  5
a3
  8
Layer_0
  10
135.67615
  20
460.56497
  0
VERTEX
  5
a4
  8
Layer_0
  10
138.67615
  20
460.56497
  0
VERTEX
  5
a5
  8
Layer_0
  10
138.67615
  20
354.76498
  0
VERTEX
  5
a6
  8
Layer_0
  10
135.67615
  20
354.76498
  0
VERTEX
  5
a7
  8
Layer_0
  10
135.67615
  20
248.565
  0
VERTEX
  5
a8
  8
Layer_0
  10
138.67615
  20
248.565
  0
VERTEX
  5
a9
  8
Layer_0
  10
138.67615
  20
142.76498
  0
VERTEX
  5
aa
  8
Layer_0
  10
135.67615
  20
142.76498
  0
VERTEX
  5
ab
  8
Layer_0
  10
135.67615
  20
36.664673
  0
VERTEX
  5
ac
  8
Layer_0
  10
138.67615
  20
36.664673
  0
VERTEX
  5
ad
  8
Layer_0
  10
138.67615
  20
33.664673
  0
VERTEX
  5
ae
  8
Layer_0
  10
178.77612
  20
33.664673
  0
VERTEX
  5
af
  8
Layer_0
  10
178.77612
  20
36.664673
  0
VERTEX
  5
b0
  8
Layer_0
  10
218.57605
  20
36.664673
  0
VERTEX
  5
b1
  8
Layer_0
  10
218.57605
  20
33.664673
  0
VERTEX
  5
b2
  8
Layer_0
  10
258.776
  20
33.664673
  0
VERTEX
  5
b3
  8
Layer_0
  10
258.776
  20
36.664673
  0
VERTEX
  5
b4
  8
Layer_0
  10
298.57605
  20
36.664673
  0
VERTEX
  5
b5
  8
Layer_0
  10
298.57605
  20
33.664673
  0
VERTEX
  5
b6
  8
Layer_0
  10
338.67603
  20
33.664673
  0
VERTEX
  5
b7
  8
Layer_0
  10
338.67603
  20
36.664673
  0
VERTEX
  5
b8
  8
Layer_0
  10
341.67603
  20
36.664673
  0
VERTEX
  5
b9
  8
Layer_0
  10
341.67603
  20
142.76498
  0
VERTEX
  5
ba
  8
Layer_0
  10
338.67603
  20
142.76498
  0
VERTEX
  5
bb
  8
Layer_0
  10
338.67603
  20
248.565
  0
VERTEX
  5
bc
  8
Layer_0
  10
341.67603
  20
248.565
  0
SEQEND
  0
POLYLINE
  5
be
  8
Layer_0
  62
0
  66
1
  10
0
  20
0
  30
0
  0
VERTEX
  5
be
  8
Layer_0
  10
219.17603
  20
64.664673
  0
VERTEX
  5
bf
  8
Layer_0
  10
219.17603
  20
96.664673
  0
VERTEX
  5
c0
  8
Layer_0
  10
225.67603
  20
96.664673
  0
VERTEX
  5
c1
  8
Layer_0
  10
225.67603
  20
538.66498
  0
VERTEX
  5
c2
  8
Layer_0
  10
229.67603
  20
538.66498
  0
VERTEX
  5
c3
  8
Layer_0
  10
229.67603
  20
96.664673
  0
VERTEX
  5
c4
  8
Layer_0
  10
236.17603
  20
96.664673
  0
VERTEX
  5
c5
  8
Layer_0
  10
236.17603
  20
64.664673
  0
VERTEX
  5
c6
  8
Layer_0
  10
219.17603
  20
64.664673
  0
SEQEND
  0
POLYLINE
  5
c8
  8
Layer_0
  62
0
  66
1
  10
0
  20
0
  30
0
  0
VERTEX
  5
c8
  8
Layer_0
  10
208.67603
  20
506.66498
  0
VERTEX
  5
c9
  8
Layer_0
  10
202.17603
  20
506.66498
  0
VERTEX
  5
ca
  8
Layer_0
  10
202.17603
  20
538.66498
  0
VERTEX
  5
cb
  8
Layer_0
  10
219.17603
  20
538.66498
  0
VERTEX
  5
cc
  8
Layer_0
  10
219.17603
  20
506.66498
  0
VERTEX
  5
cd
  8
Layer_0
  10
212.67603
  20
506.66498
  0
VERTEX
  5
ce
  8
Layer_0
  10
212.67603
  20
64.664673
  0
VERTEX
  5
cf
  8
Layer_0
  10
208.67603
  20
64.664673
  0
VERTEX
  5
d0
  8
Layer_0
  10
208.67603
  20
506.66498
  0
SEQEND
  0
POLYLINE
  5
d2
  8
Layer_0
  62
0
  66
1
  10
0
  20
0
  30
0
  0
VERTEX
  5
d2
  8
Layer_0
  10
264.67603
  20
538.66498
  0
VERTEX
  5
d3
  8
Layer_0
  10
268.67603
  20
538.66498
  0
VERTEX
  5
d4
  8
Layer_0
  10
268.67603
  20
96.664673
  0
VERTEX
  5
d5
  8
Layer_0
  10
275.17603
  20
96.664673
  0
VERTEX
  5
d6
  8
Layer_0
  10
275.17603
  20
64.664673
  0
VERTEX
  5
d7
  8
Layer_0
  10
258.17603
  20
64.664673
  0
VERTEX
  5
d8
  8
Layer_0
  10
258.17603
  20
96.664673
  0
VERTEX
  5
d9
  8
Layer_0
  10
264.67603
  20
96.664673
  0
VERTEX
  5
da
  8
Layer_0
  10
264.67603
  20
538.66498
  0
SEQEND
  0
POLYLINE
  5
dc
  8
Layer_0
  62
0
  66
1
  10
0
  20
0
  30
0
  0
VERTEX
  5
dc
  8
Layer_0
  10
251.67603
  20
506.66498
  0
VERTEX
  5
dd
  8
Layer_0
  10
251.67603
  20
64.664673
  0
VERTEX
  5
de
  8
Layer_0
  10
247.67603
  20
64.664673
  0
VERTEX
  5
df
  8
Layer_0
  10
247.67603
  20
506.66498
  0
VERTEX
  5
e0
  8
Layer_0
  10
241.17603
  20
506.66498
  0
VERTEX
  5
e1
  8
Layer_0
  10
241.17603
  20
538.66498
  0
VERTEX
  5
e2
  8
Layer_0
  10
258.17603
  20
538.66498
  0
VERTEX
  5
e3
  8
Layer_0
  10
258.17603
  20
506.66498
  0
VERTEX
  5
e4
  8
Layer_0
  10
251.67603
  20
506.66498
  0
SEQEND
  0
POLYLINE
  5
e6
  8
Layer_0
  62
0
  66
1
  10
0
  20
0
  30
0
  0
VERTEX
  5
e6
  8
Layer_0
  10
571.436
  20
26.999756
  0
VERTEX
  5
e7
  8
Layer_0
  10
571.436
  20
573
  0
VERTEX
  5
e8
  8
Layer_0
  10
355.43604
  20
573
  0
VERTEX
  5
e9
  8
Layer_0
  10
355.43604
  20
26.999756
  0
VERTEX
  5
ea
  8
Layer_0
  10
571.436
  20
26.999756
  0
SEQEND
  0
POLYLINE
  5
ec
  8
Layer_0
  62
0
  66
1
  10
0
  20
0
  30
0
  0
VERTEX
  5
ec
  8
Layer_0
  10
563.38669
  20
162.617
  42
-0.31537439
  0
VERTEX
  5
ed
  8
Layer_0
  10
563.2865
  20
162.83188
  42
-0.31537043
  0
VERTEX
  5
ee
  8
Layer_0
  10
563.45413
  20
162.99951
  42
-0.31421638
  0
VERTEX
  5
ef
  8
Layer_0
  10
563.66901
  20
162.89996
  0
VERTEX
  5
f0
  8
Layer_0
  10
566.20404
  20
162.89932
  42
-0.33938596
  0
VERTEX
  5
f1
  8
Layer_0
  10
566.43652
  20
162.99561
  42
-0.33942171
  0
VERTEX
  5
f2
  8
Layer_0
  10
566.58969
  20
162.79599
  42
-0.26790592
  0
VERTEX
  5
f3
  8
Layer_0
  10
566.48636
  20
162.617
  0
VERTEX
  5
f4
  8
Layer_0
  10
566.48602
  20
153.38199
  42
-0.26846509
  0
VERTEX
  5
f5
  8
Layer_0
  10
566.58969
  20
153.203
  42
-0.33942171
  0
VERTEX
  5
f6
  8
Layer_0
  10
566.43652
  20
153.00336
  42
-0.33938596
  0
VERTEX
  5
f7
  8
Layer_0
  10
566.20404
  20
153.09967
  0
VERTEX
  5
f8
  8
Layer_0
  10
563.66901
  20
153.09998
  42
-0.31576633
  0
VERTEX
  5
f9
  8
Layer_0
  10
563.45413
  20
152.99945
  42
-0.31537043
  0
VERTEX
  5
fa
  8
Layer_0
  10
563.2865
  20
153.16711
  42
-0.31537439
  0
VERTEX
  5
fb
  8
Layer_0
  10
563.38669
  20
153.38196
  0
VERTEX
  5
fc
  8
Layer_0
  10
563.38669
  20
162.617
  0
SEQEND
  0
POLYLINE
  5
fe
  8
Layer_0
  62
0
  66
1
  10
0
  20
0
  30
0
  0
VERTEX
  5
fe
  8
Layer_0
  10
510.436
  20
44.999756
  0
VERTEX
  5
ff
  8
Layer_0
  10
510.436
  20
54.999756
  42
0.41421356
  0
VERTEX
  5
100
  8
Layer_0
  10
508.686
  20
56.749756
  42
0.41421356
  0
VERTEX
  5
101
  8
Layer_0
  10
506.936
  20
54.999756
  0
VERTEX
  5
102
  8
Layer_0
  10
506.936
  20
44.999756
  42
0.41421356
  0
VERTEX
  5
103
  8
Layer_0
  10
508.686
  20
43.249756
  42
0.41421356
  0
VERTEX
  5
104
  8
Layer_0
  10
510.436
  20
44.999756
  0
SEQEND
  0
POLYLINE
  5
106
  8
Layer_0
  62
0
  66
1
  10
0
  20
0
  30
0
  0
VERTEX
  5
106
  8
Layer_0
  10
493.436
  20
44.999756
  0
VERTEX
  5
107
  8
Layer_0
  10
493.436
  20
54.999756
  42
0.41421356
  0
VERTEX
  5
108
  8
Layer_0
  10
491.686
  20
56.749756
  42
0.41421356
  0
VERTEX
  5
109
  8
Layer_0
  10
489.936
  20
54.999756
  0
VERTEX
  5
10a
  8
Layer_0
  10
489.936
  20
44.999756
  42
0.41421356
  0
VERTEX
  5
10b
  8
Layer_0
  10
491.686
  20
43.249756
  42
0.41421356
  0
VERTEX
  5
10c
  8
Layer_0
  10
493.436
  20
44.999756
  0
SEQEND
  0
POLYLINE
  5
10e
  8
Layer_0
  62
0
  66
1
  10
0
  20
0
  30
0
  0
VERTEX
  5
10e
  8
Layer_0
  10
466.53668
  20
34.767395
  42
-0.31537859
  0
VERTEX
  5
10f
  8
Layer_0
  10
466.43649
  20
34.9823
  42
-0.31533688
  0
VERTEX
  5
110
  8
Layer_0
  10
466.60413
  20
35.149902
  42
-0.31506882
  0
VERTEX
  5
111
  8
Layer_0
  10
466.81903
  20
35.049805
  0
VERTEX
  5
112
  8
Layer_0
  10
476.05405
  20
35.049744
  42
-0.31525508
  0
VERTEX
  5
113
  8
Layer_0
  10
476.26892
  20
35.149902
  42
-0.31533688
  0
VERTEX
  5
114
  8
Layer_0
  10
476.43655
  20
34.9823
  42
-0.31611647
  0
VERTEX
  5
115
  8
Layer_0
  10
476.33603
  20
34.767456
  0
VERTEX
  5
116
  8
Layer_0
  10
476.33636
  20
32.232056
  42
-0.33949928
  0
VERTEX
  5
117
  8
Layer_0
  10
476.43265
  20
31.999573
  42
-0.33948036
  0
VERTEX
  5
118
  8
Layer_0
  10
476.23303
  20
31.846436
  42
-0.26792669
  0
VERTEX
  5
119
  8
Layer_0
  10
476.05405
  20
31.949768
  0
VERTEX
  5
11a
  8
Layer_0
  10
466.81903
  20
31.949768
  42
-0.26789311
  0
VERTEX
  5
11b
  8
Layer_0
  10
466.64001
  20
31.846436
  42
-0.33948036
  0
VERTEX
  5
11c
  8
Layer_0
  10
466.4404
  20
31.999573
  42
-0.33949928
  0
VERTEX
  5
11d
  8
Layer_0
  10
466.53668
  20
32.232056
  0
VERTEX
  5
11e
  8
Layer_0
  10
466.53668
  20
34.767395
  0
SEQEND
  0
POLYLINE
  5
120
  8
Layer_0
  62
0
  66
1
  10
0
  20
0
  30
0
  0
VERTEX
  5
120
  8
Layer_0
  10
563.38669
  20
178.617
  42
-0.31537439
  0
VERTEX
  5
121
  8
Layer_0
  10
563.2865
  20
178.83188
  42
-0.31537043
  0
VERTEX
  5
122
  8
Layer_0
  10
563.45413
  20
178.99951
  42
-0.31421638
  0
VERTEX
  5
123
  8
Layer_0
  10
563.66901
  20
178.89996
  0
VERTEX
  5
124
  8
Layer_0
  10
566.20404
  20
178.89932
  42
-0.33938596
  0
VERTEX
  5
125
  8
Layer_0
  10
566.43652
  20
178.99561
  42
-0.33942171
  0
VERTEX
  5
126
  8
Layer_0
  10
566.58969
  20
178.79599
  42
-0.26790592
  0
VERTEX
  5
127
  8
Layer_0
  10
566.48636
  20
178.617
  0
VERTEX
  5
128
  8
Layer_0
  10
566.48602
  20
169.38199
  42
-0.26846509
  0
VERTEX
  5
129
  8
Layer_0
  10
566.58969
  20
169.203
  42
-0.33942171
  0
VERTEX
  5
12a
  8
Layer_0
  10
566.43652
  20
169.00336
  42
-0.33938596
  0
VERTEX
  5
12b
  8
Layer_0
  10
566.20404
  20
169.09967
  0
VERTEX
  5
12c
  8
Layer_0
  10
563.66901
  20
169.09998
  42
-0.31576633
  0
VERTEX
  5
12d
  8
Layer_0
  10
563.45413
  20
168.99945
  42
-0.31537043
  0
VERTEX
  5
12e
  8
Layer_0
  10
563.2865
  20
169.16711
  42
-0.31537439
  0
VERTEX
  5
12f
  8
Layer_0
  10
563.38669
  20
169.38196
  0
VERTEX
  5
130
  8
Layer_0
  10
563.38669
  20
178.617
  0
SEQEND
  0
POLYLINE
  5
132
  8
Layer_0
  62
0
  66
1
  10
0
  20
0
  30
0
  0
VERTEX
  5
132
  8
Layer_0
  10
450.53668
  20
34.767395
  42
-0.31537859
  0
VERTEX
  5
133
  8
Layer_0
  10
450.43649
  20
34.9823
  42
-0.31533688
  0
VERTEX
  5
134
  8
Layer_0
  10
450.60413
  20
35.149902
  42
-0.31506882
  0
VERTEX
  5
135
  8
Layer_0
  10
450.81903
  20
35.049805
  0
VERTEX
  5
136
  8
Layer_0
  10
460.05405
  20
35.049744
  42
-0.31525508
  0
VERTEX
  5
137
  8
Layer_0
  10
460.26892
  20
35.149902
  42
-0.31533688
  0
VERTEX
  5
138
  8
Layer_0
  10
460.43655
  20
34.9823
  42
-0.31611647
  0
VERTEX
  5
139
  8
Layer_0
  10
460.33603
  20
34.767456
  0
VERTEX
  5
13a
  8
Layer_0
  10
460.33636
  20
32.232056
  42
-0.33949928
  0
VERTEX
  5
13b
  8
Layer_0
  10
460.43265
  20
31.999573
  42
-0.33948036
  0
VERTEX
  5
13c
  8
Layer_0
  10
460.23303
  20
31.846436
  42
-0.26792669
  0
VERTEX
  5
13d
  8
Layer_0
  10
460.05405
  20
31.949768
  0
VERTEX
  5
13e
  8
Layer_0
  10
450.81903
  20
31.949768
  42
-0.26789311
  0
VERTEX
  5
13f
  8
Layer_0
  10
450.64001
  20
31.846436
  42
-0.33948036
  0
VERTEX
  5
140
  8
Layer_0
  10
450.4404
  20
31.999573
  42
-0.33949928
  0
VERTEX
  5
141
  8
Layer_0
  10
450.53668
  20
32.232056
  0
VERTEX
  5
142
  8
Layer_0
  10
450.53668
  20
34.767395
  0
SEQEND
  0
POLYLINE
  5
144
  8
Layer_0
  62
0
  66
1
  10
0
  20
0
  30
0
  0
VERTEX
  5
144
  8
Layer_0
  10
433.436
  20
54.999756
  0
VERTEX
  5
145
  8
Layer_0
  10
433.436
  20
44.999756
  42
0.41421356
  0
VERTEX
  5
146
  8
Layer_0
  10
435.186
  20
43.249756
  42
0.41421356
  0
VERTEX
  5
147
  8
Layer_0
  10
436.936
  20
44.999756
  0
VERTEX
  5
148
  8
Layer_0
  10
436.936
  20
54.999756
  42
0.41421356
  0
VERTEX
  5
149
  8
Layer_0
  10
435.186
  20
56.749756
  42
0.41421356
  0
VERTEX
  5
14a
  8
Layer_0
  10
433.436
  20
54.999756
  0
SEQEND
  0
POLYLINE
  5
14c
  8
Layer_0
  62
0
  66
1
  10
0
  20
0
  30
0
  0
VERTEX
  5
14c
  8
Layer_0
  10
416.436
  20
54.999756
  0
VERTEX
  5
14d
  8
Layer_0
  10
416.436
  20
44.999756
  42
0.41421356
  0
VERTEX
  5
14e
  8
Layer_0
  10
418.186
  20
43.249756
  42
0.41421356
  0
VERTEX
  5
14f
  8
Layer_0
  10
419.936
  20
44.999756
  0
VERTEX
  5
150
  8
Layer_0
  10
419.936
  20
54.999756
  42
0.41421356
  0
VERTEX
  5
151
  8
Layer_0
  10
418.186
  20
56.749756
  42
0.41421356
  0
VERTEX
  5
152
  8
Layer_0
  10
416.436
  20
54.999756
  0
SEQEND
  0
POLYLINE
  5
154
  8
Layer_0
  62
0
  66
1
  10
0
  20
0
  30
0
  0
VERTEX
  5
154
  8
Layer_0
  10
360.38672
  20
162.617
  42
-0.31537439
  0
VERTEX
  5
155
  8
Layer_0
  10
360.2865
  20
162.83188
  42
-0.31537043
  0
VERTEX
  5
156
  8
Layer_0
  10
360.4541
  20
162.99951
  42
-0.31421638
  0
VERTEX
  5
157
  8
Layer_0
  10
360.66901
  20
162.89996
  0
VERTEX
  5
158
  8
Layer_0
  10
363.20404
  20
162.89932
  42
-0.33938596
  0
VERTEX
  5
159
  8
Layer_0
  10
363.43652
  20
162.99561
  42
-0.33942171
  0
VERTEX
  5
15a
  8
Layer_0
  10
363.58972
  20
162.79599
  42
-0.26790592
  0
VERTEX
  5
15b
  8
Layer_0
  10
363.48633
  20
162.617
  0
VERTEX
  5
15c
  8
Layer_0
  10
363.48602
  20
153.38199
  42
-0.26846509
  0
VERTEX
  5
15d
  8
Layer_0
  10
363.58972
  20
153.203
  42
-0.33942171
  0
VERTEX
  5
15e
  8
Layer_0
  10
363.43652
  20
153.00336
  42
-0.33938596
  0
VERTEX
  5
15f
  8
Layer_0
  10
363.20404
  20
153.09967
  0
VERTEX
  5
160
  8
Layer_0
  10
360.66901
  20
153.09998
  42
-0.31576633
  0
VERTEX
  5
161
  8
Layer_0
  10
360.4541
  20
152.99945
  42
-0.31537043
  0
VERTEX
  5
162
  8
Layer_0
  10
360.2865
  20
153.16711
  42
-0.31537439
  0
VERTEX
  5
163
  8
Layer_0
  10
360.38672
  20
153.38196
  0
VERTEX
  5
164
  8
Layer_0
  10
360.38672
  20
162.617
  0
SEQEND
  0
POLYLINE
  5
166
  8
Layer_0
  62
0
  66
1
  10
0
  20
0
  30
0
  0
VERTEX
  5
166
  8
Layer_0
  10
360.38672
  20
178.617
  42
-0.31537439
  0
VERTEX
  5
167
  8
Layer_0
  10
360.2865
  20
178.83188
  42
-0.31537043
  0
VERTEX
  5
168
  8
Layer_0
  10
360.4541
  20
178.99951
  42
-0.31421638
  0
VERTEX
  5
169
  8
Layer_0
  10
360.66901
  20
178.89996
  0
VERTEX
  5
16a
  8
Layer_0
  10
363.20404
  20
178.89932
  42
-0.33938596
  0
VERTEX
  5
16b
  8
Layer_0
  10
363.43652
  20
178.99561
  42
-0.33942171
  0
VERTEX
  5
16c
  8
Layer_0
  10
363.58972
  20
178.79599
  42
-0.26790592
  0
VERTEX
  5
16d
  8
Layer_0
  10
363.48633
  20
178.617
  0
VERTEX
  5
16e
  8
Layer_0
  10
363.48602
  20
169.38199
  42
-0.26846509
  0
VERTEX
  5
16f
  8
Layer_0
  10
363.58972
  20
169.203
  42
-0.33942171
  0
VERTEX
  5
170
  8
Layer_0
  10
363.43652
  20
169.00336
  42
-0.33938596
  0
VERTEX
  5
171
  8
Layer_0
  10
363.20404
  20
169.09967
  0
VERTEX
  5
172
  8
Layer_0
  10
360.66901
  20
169.09998
  42
-0.31576633
  0
VERTEX
  5
173
  8
Layer_0
  10
360.4541
  20
168.99945
  42
-0.31537043
  0
VERTEX
  5
174
  8
Layer_0
  10
360.2865
  20
169.16711
  42
-0.31537439
  0
VERTEX
  5
175
  8
Layer_0
  10
360.38672
  20
169.38196
  0
VERTEX
  5
176
  8
Layer_0
  10
360.38672
  20
178.617
  0
SEQEND
  0
POLYLINE
  5
178
  8
Layer_0
  62
0
  66
1
  10
0
  20
0
  30
0
  0
VERTEX
  5
178
  8
Layer_0
  10
563.38669
  20
430.617
  42
-0.31533259
  0
VERTEX
  5
179
  8
Layer_0
  10
563.2865
  20
430.83188
  42
-0.31537881
  0
VERTEX
  5
17a
  8
Layer_0
  10
563.45413
  20
430.99951
  42
-0.31426389
  0
VERTEX
  5
17b
  8
Layer_0
  10
563.66901
  20
430.89999
  0
VERTEX
  5
17c
  8
Layer_0
  10
566.20404
  20
430.89932
  42
-0.33945106
  0
VERTEX
  5
17d
  8
Layer_0
  10
566.43652
  20
430.99561
  42
-0.33946565
  0
VERTEX
  5
17e
  8
Layer_0
  10
566.58969
  20
430.79599
  42
-0.26790592
  0
VERTEX
  5
17f
  8
Layer_0
  10
566.48636
  20
430.617
  0
VERTEX
  5
180
  8
Layer_0
  10
566.48602
  20
421.38199
  42
-0.26841726
  0
VERTEX
  5
181
  8
Layer_0
  10
566.58969
  20
421.20297
  42
-0.33946565
  0
VERTEX
  5
182
  8
Layer_0
  10
566.43652
  20
421.00336
  42
-0.33945106
  0
VERTEX
  5
183
  8
Layer_0
  10
566.20404
  20
421.09964
  0
VERTEX
  5
184
  8
Layer_0
  10
563.66901
  20
421.09998
  42
-0.31586185
  0
VERTEX
  5
185
  8
Layer_0
  10
563.45413
  20
420.99945
  42
-0.31537881
  0
VERTEX
  5
186
  8
Layer_0
  10
563.2865
  20
421.16708
  42
-0.31533259
  0
VERTEX
  5
187
  8
Layer_0
  10
563.38669
  20
421.38196
  0
VERTEX
  5
188
  8
Layer_0
  10
563.38669
  20
430.617
  0
SEQEND
  0
POLYLINE
  5
18a
  8
Layer_0
  62
0
  66
1
  10
0
  20
0
  30
0
  0
VERTEX
  5
18a
  8
Layer_0
  10
563.38669
  20
446.617
  42
-0.31533259
  0
VERTEX
  5
18b
  8
Layer_0
  10
563.2865
  20
446.83188
  42
-0.31537881
  0
VERTEX
  5
18c
  8
Layer_0
  10
563.45413
  20
446.99951
  42
-0.31426389
  0
VERTEX
  5
18d
  8
Layer_0
  10
563.66901
  20
446.89999
  0
VERTEX
  5
18e
  8
Layer_0
  10
566.20404
  20
446.89932
  42
-0.33945106
  0
VERTEX
  5
18f
  8
Layer_0
  10
566.43652
  20
446.99561
  42
-0.33946565
  0
VERTEX
  5
190
  8
Layer_0
  10
566.58969
  20
446.79599
  42
-0.26790592
  0
VERTEX
  5
191
  8
Layer_0
  10
566.48636
  20
446.617
  0
VERTEX
  5
192
  8
Layer_0
  10
566.48602
  20
437.38199
  42
-0.26841726
  0
VERTEX
  5
193
  8
Layer_0
  10
566.58969
  20
437.20297
  42
-0.33946565
  0
VERTEX
  5
194
  8
Layer_0
  10
566.43652
  20
437.00336
  42
-0.33945106
  0
VERTEX
  5
195
  8
Layer_0
  10
566.20404
  20
437.09964
  0
VERTEX
  5
196
  8
Layer_0
  10
563.66901
  20
437.09998
  42
-0.31586185
  0
VERTEX
  5
197
  8
Layer_0
  10
563.45413
  20
436.99945
  42
-0.31537881
  0
VERTEX
  5
198
  8
Layer_0
  10
563.2865
  20
437.16708
  42
-0.31533259
  0
VERTEX
  5
199
  8
Layer_0
  10
563.38669
  20
437.38196
  0
VERTEX
  5
19a
  8
Layer_0
  10
563.38669
  20
446.617
  0
SEQEND
  0
POLYLINE
  5
19c
  8
Layer_0
  62
0
  66
1
  10
0
  20
0
  30
0
  0
VERTEX
  5
19c
  8
Layer_0
  10
466.53668
  20
567.76703
  42
-0.31549983
  0
VERTEX
  5
19d
  8
Layer_0
  10
466.43649
  20
567.98187
  42
-0.31518869
  0
VERTEX
  5
19e
  8
Layer_0
  10
466.60413
  20
568.14954
  42
-0.31408499
  0
VERTEX
  5
19f
  8
Layer_0
  10
466.81903
  20
568.04999
  0
VERTEX
  5
1a0
  8
Layer_0
  10
476.05405
  20
568.04932
  42
-0.31523753
  0
VERTEX
  5
1a1
  8
Layer_0
  10
476.26892
  20
568.14954
  42
-0.31518869
  0
VERTEX
  5
1a2
  8
Layer_0
  10
476.43655
  20
567.98187
  42
-0.31586185
  0
VERTEX
  5
1a3
  8
Layer_0
  10
476.33603
  20
567.76697
  0
VERTEX
  5
1a4
  8
Layer_0
  10
476.33636
  20
565.23193
  42
-0.33955341
  0
VERTEX
  5
1a5
  8
Layer_0
  10
476.43265
  20
564.99951
  42
-0.33951271
  0
VERTEX
  5
1a6
  8
Layer_0
  10
476.23303
  20
564.84631
  42
-0.26796129
  0
VERTEX
  5
1a7
  8
Layer_0
  10
476.05405
  20
564.94965
  0
VERTEX
  5
1a8
  8
Layer_0
  10
466.81903
  20
564.95001
  42
-0.26852717
  0
VERTEX
  5
1a9
  8
Layer_0
  10
466.64001
  20
564.84631
  42
-0.33951271
  0
VERTEX
  5
1aa
  8
Layer_0
  10
466.4404
  20
564.99951
  42
-0.33955341
  0
VERTEX
  5
1ab
  8
Layer_0
  10
466.53668
  20
565.23193
  0
VERTEX
  5
1ac
  8
Layer_0
  10
466.53668
  20
567.76703
  0
SEQEND
  0
POLYLINE
  5
1ae
  8
Layer_0
  62
0
  66
1
  10
0
  20
0
  30
0
  0
VERTEX
  5
1ae
  8
Layer_0
  10
360.38672
  20
430.617
  42
-0.31533259
  0
VERTEX
  5
1af
  8
Layer_0
  10
360.2865
  20
430.83188
  42
-0.31537881
  0
VERTEX
  5
1b0
  8
Layer_0
  10
360.4541
  20
430.99951
  42
-0.31426389
  0
VERTEX
  5
1b1
  8
Layer_0
  10
360.66901
  20
430.89999
  0
VERTEX
  5
1b2
  8
Layer_0
  10
363.20404
  20
430.89932
  42
-0.33945106
  0
VERTEX
  5
1b3
  8
Layer_0
  10
363.43652
  20
430.99561
  42
-0.33946565
  0
VERTEX
  5
1b4
  8
Layer_0
  10
363.58972
  20
430.79599
  42
-0.26790592
  0
VERTEX
  5
1b5
  8
Layer_0
  10
363.48633
  20
430.617
  0
VERTEX
  5
1b6
  8
Layer_0
  10
363.48602
  20
421.38199
  42
-0.26841726
  0
VERTEX
  5
1b7
  8
Layer_0
  10
363.58972
  20
421.20297
  42
-0.33946565
  0
VERTEX
  5
1b8
  8
Layer_0
  10
363.43652
  20
421.00336
  42
-0.33945106
  0
VERTEX
  5
1b9
  8
Layer_0
  10
363.20404
  20
421.09964
  0
VERTEX
  5
1ba
  8
Layer_0
  10
360.66901
  20
421.09998
  42
-0.31586185
  0
VERTEX
  5
1bb
  8
Layer_0
  10
360.4541
  20
420.99945
  42
-0.31537881
  0
VERTEX
  5
1bc
  8
Layer_0
  10
360.2865
  20
421.16708
  42
-0.31533259
  0
VERTEX
  5
1bd
  8
Layer_0
  10
360.38672
  20
421.38196
  0
VERTEX
  5
1be
  8
Layer_0
  10
360.38672
  20
430.617
  0
SEQEND
  0
POLYLINE
  5
1c0
  8
Layer_0
  62
0
  66
1
  10
0
  20
0
  30
0
  0
VERTEX
  5
1c0
  8
Layer_0
  10
450.53668
  20
567.76703
  42
-0.31549983
  0
VERTEX
  5
1c1
  8
Layer_0
  10
450.43649
  20
567.98187
  42
-0.31518869
  0
VERTEX
  5
1c2
  8
Layer_0
  10
450.60413
  20
568.14954
  42
-0.31408499
  0
VERTEX
  5
1c3
  8
Layer_0
  10
450.81903
  20
568.04999
  0
VERTEX
  5
1c4
  8
Layer_0
  10
460.05405
  20
568.04932
  42
-0.31523753
  0
VERTEX
  5
1c5
  8
Layer_0
  10
460.26892
  20
568.14954
  42
-0.31518869
  0
VERTEX
  5
1c6
  8
Layer_0
  10
460.43655
  20
567.98187
  42
-0.31586185
  0
VERTEX
  5
1c7
  8
Layer_0
  10
460.33603
  20
567.76697
  0
VERTEX
  5
1c8
  8
Layer_0
  10
460.33636
  20
565.23193
  42
-0.33955341
  0
VERTEX
  5
1c9
  8
Layer_0
  10
460.43265
  20
564.99951
  42
-0.33951271
  0
VERTEX
  5
1ca
  8
Layer_0
  10
460.23303
  20
564.84631
  42
-0.26796129
  0
VERTEX
  5
1cb
  8
Layer_0
  10
460.05405
  20
564.94965
  0
VERTEX
  5
1cc
  8
Layer_0
  10
450.81903
  20
564.95001
  42
-0.26852717
  0
VERTEX
  5
1cd
  8
Layer_0
  10
450.64001
  20
564.84631
  42
-0.33951271
  0
VERTEX
  5
1ce
  8
Layer_0
  10
450.4404
  20
564.99951
  42
-0.33955341
  0
VERTEX
  5
1cf
  8
Layer_0
  10
450.53668
  20
565.23193
  0
VERTEX
  5
1d0
  8
Layer_0
  10
450.53668
  20
567.76703
  0
SEQEND
  0
POLYLINE
  5
1d2
  8
Layer_0
  62
0
  66
1
  10
0
  20
0
  30
0
  0
VERTEX
  5
1d2
  8
Layer_0
  10
360.38672
  20
446.617
  42
-0.31533259
  0
VERTEX
  5
1d3
  8
Layer_0
  10
360.2865
  20
446.83188
  42
-0.31537881
  0
VERTEX
  5
1d4
  8
Layer_0
  10
360.4541
  20
446.99951
  42
-0.31426389
  0
VERTEX
  5
1d5
  8
Layer_0
  10
360.66901
  20
446.89999
  0
VERTEX
  5
1d6
  8
Layer_0
  10
363.20404
  20
446.89932
  42
-0.33945106
  0
VERTEX
  5
1d7
  8
Layer_0
  10
363.43652
  20
446.99561
  42
-0.33946565
  0
VERTEX
  5
1d8
  8
Layer_0
  10
363.58972
  20
446.79599
  42
-0.26790592
  0
VERTEX
  5
1d9
  8
Layer_0
  10
363.48633
  20
446.617
  0
VERTEX
  5
1da
  8
Layer_0
  10
363.48602
  20
437.38199
  42
-0.26841726
  0
VERTEX
  5
1db
  8
Layer_0
  10
363.58972
  20
437.20297
  42
-0.33946565
  0
VERTEX
  5
1dc
  8
Layer_0
  10
363.43652
  20
437.00336
  42
-0.33945106
  0
VERTEX
  5
1dd
  8
Layer_0
  10
363.20404
  20
437.09964
  0
VERTEX
  5
1de
  8
Layer_0
  10
360.66901
  20
437.09998
  42
-0.31586185
  0
VERTEX
  5
1df
  8
Layer_0
  10
360.4541
  20
436.99945
  42
-0.31537881
  0
VERTEX
  5
1e0
  8
Layer_0
  10
360.2865
  20
437.16708
  42
-0.31533259
  0
VERTEX
  5
1e1
  8
Layer_0
  10
360.38672
  20
437.38196
  0
VERTEX
  5
1e2
  8
Layer_0
  10
360.38672
  20
446.617
  0
SEQEND
  0
POLYLINE
  5
1e4
  8
Layer_0
  62
0
  66
1
  10
0
  20
0
  30
0
  0
VERTEX
  5
1e4
  8
Layer_0
  10
746.633
  20
460.86398
  0
VERTEX
  5
1e5
  8
Layer_0
  10
748.51422
  20
460.86465
  42
-0.33945758
  0
VERTEX
  5
1e6
  8
Layer_0
  10
748.68671
  20
460.9361
  42
-0.33956698
  0
VERTEX
  5
1e7
  8
Layer_0
  10
748.80035
  20
460.78799
  42
-0.26619031
  0
VERTEX
  5
1e8
  8
Layer_0
  10
748.724
  20
460.65497
  0
VERTEX
  5
1e9
  8
Layer_0
  10
748.724
  20
459.86398
  0
VERTEX
  5
1ea
  8
Layer_0
  10
761.32404
  20
459.86398
  0
VERTEX
  5
1eb
  8
Layer_0
  10
761.32404
  20
461.064
  0
VERTEX
  5
1ec
  8
Layer_0
  10
764.32404
  20
461.064
  0
VERTEX
  5
1ed
  8
Layer_0
  10
764.32404
  20
471.26398
  0
VERTEX
  5
1ee
  8
Layer_0
  10
761.32404
  20
471.26398
  0
VERTEX
  5
1ef
  8
Layer_0
  10
761.32404
  20
561.164
  0
VERTEX
  5
1f0
  8
Layer_0
  10
746.02405
  20
561.164
  0
VERTEX
  5
1f1
  8
Layer_0
  10
746.02405
  20
558.164
  0
VERTEX
  5
1f2
  8
Layer_0
  10
731.02405
  20
558.164
  0
VERTEX
  5
1f3
  8
Layer_0
  10
731.02405
  20
561.164
  0
VERTEX
  5
1f4
  8
Layer_0
  10
715.62402
  20
561.164
  0
VERTEX
  5
1f5
  8
Layer_0
  10
715.62402
  20
558.164
  0
VERTEX
  5
1f6
  8
Layer_0
  10
700.62402
  20
558.164
  0
VERTEX
  5
1f7
  8
Layer_0
  10
700.62402
  20
561.164
  0
VERTEX
  5
1f8
  8
Layer_0
  10
685.32404
  20
561.164
  0
VERTEX
  5
1f9
  8
Layer_0
  10
685.32404
  20
558.164
  0
VERTEX
  5
1fa
  8
Layer_0
  10
688.37402
  20
558.164
  0
VERTEX
  5
1fb
  8
Layer_0
  10
688.37372
  20
518.55573
  42
-0.31517315
  0
VERTEX
  5
1fc
  8
Layer_0
  10
688.47711
  20
518.33392
  42
-0.31535227
  0
VERTEX
  5
1fd
  8
Layer_0
  10
688.30408
  20
518.16089
  42
-0.31405583
  0
VERTEX
  5
1fe
  8
Layer_0
  10
688.08203
  20
518.26398
  0
VERTEX
  5
1ff
  8
Layer_0
  10
685.32404
  20
518.26398
  0
VERTEX
  5
200
  8
Layer_0
  10
685.32404
  20
478.064
  0
VERTEX
  5
201
  8
Layer_0
  10
688.08228
  20
478.06464
  42
-0.31531204
  0
VERTEX
  5
202
  8
Layer_0
  10
688.30408
  20
478.16806
  42
-0.31535227
  0
VERTEX
  5
203
  8
Layer_0
  10
688.47711
  20
477.99503
  42
-0.31413672
  0
VERTEX
  5
204
  8
Layer_0
  10
688.37402
  20
477.77298
  0
VERTEX
  5
205
  8
Layer_0
  10
688.37372
  20
438.55573
  42
-0.31525415
  0
VERTEX
  5
206
  8
Layer_0
  10
688.47711
  20
438.33392
  42
-0.31535227
  0
VERTEX
  5
207
  8
Layer_0
  10
688.30408
  20
438.16089
  42
-0.31414787
  0
VERTEX
  5
208
  8
Layer_0
  10
688.08203
  20
438.26398
  0
VERTEX
  5
209
  8
Layer_0
  10
685.32404
  20
438.26398
  0
VERTEX
  5
20a
  8
Layer_0
  10
685.32404
  20
398.064
  0
VERTEX
  5
20b
  8
Layer_0
  10
688.08228
  20
398.06464
  42
-0.31531204
  0
VERTEX
  5
20c
  8
Layer_0
  10
688.30408
  20
398.16806
  42
-0.31535227
  0
VERTEX
  5
20d
  8
Layer_0
  10
688.47711
  20
397.99503
  42
-0.31413672
  0
VERTEX
  5
20e
  8
Layer_0
  10
688.37402
  20
397.77298
  0
VERTEX
  5
20f
  8
Layer_0
  10
688.37402
  20
358.16397
  0
VERTEX
  5
210
  8
Layer_0
  10
685.32404
  20
358.16397
  0
VERTEX
  5
211
  8
Layer_0
  10
685.32404
  20
355.16397
  0
VERTEX
  5
212
  8
Layer_0
  10
700.62402
  20
355.16397
  0
VERTEX
  5
213
  8
Layer_0
  10
700.62402
  20
358.16397
  0
VERTEX
  5
214
  8
Layer_0
  10
715.62402
  20
358.16397
  0
VERTEX
  5
215
  8
Layer_0
  10
715.62402
  20
355.16397
  0
VERTEX
  5
216
  8
Layer_0
  10
731.02405
  20
355.16397
  0
VERTEX
  5
217
  8
Layer_0
  10
731.02405
  20
358.16397
  0
VERTEX
  5
218
  8
Layer_0
  10
746.02405
  20
358.16397
  0
VERTEX
  5
219
  8
Layer_0
  10
746.02405
  20
355.16397
  0
VERTEX
  5
21a
  8
Layer_0
  10
761.32404
  20
355.16397
  0
VERTEX
  5
21b
  8
Layer_0
  10
761.32404
  20
445.064
  0
VERTEX
  5
21c
  8
Layer_0
  10
764.32404
  20
445.064
  0
VERTEX
  5
21d
  8
Layer_0
  10
764.32404
  20
455.26398
  0
VERTEX
  5
21e
  8
Layer_0
  10
761.32404
  20
455.26398
  0
VERTEX
  5
21f
  8
Layer_0
  10
761.32404
  20
456.46399
  0
VERTEX
  5
220
  8
Layer_0
  10
748.724
  20
456.46399
  0
VERTEX
  5
221
  8
Layer_0
  10
748.724
  20
455.67398
  42
-0.2663194
  0
VERTEX
  5
222
  8
Layer_0
  10
748.80035
  20
455.54099
  42
-0.33956698
  0
VERTEX
  5
223
  8
Layer_0
  10
748.68671
  20
455.39288
  42
-0.33945758
  0
VERTEX
  5
224
  8
Layer_0
  10
748.51422
  20
455.46432
  0
VERTEX
  5
225
  8
Layer_0
  10
746.633
  20
455.46399
  42
-0.31779572
  0
VERTEX
  5
226
  8
Layer_0
  10
746.47443
  20
455.38998
  42
-0.31538801
  0
VERTEX
  5
227
  8
Layer_0
  10
746.35004
  20
455.51437
  42
-0.31526344
  0
VERTEX
  5
228
  8
Layer_0
  10
746.42438
  20
455.67377
  0
VERTEX
  5
229
  8
Layer_0
  10
746.42401
  20
456.46399
  0
VERTEX
  5
22a
  8
Layer_0
  10
743.83405
  20
456.46399
  42
-0.3125962
  0
VERTEX
  5
22b
  8
Layer_0
  10
743.59766
  20
456.35474
  42
-0.31523242
  0
VERTEX
  5
22c
  8
Layer_0
  10
743.41382
  20
456.5386
  42
-0.3152928
  0
VERTEX
  5
22d
  8
Layer_0
  10
743.52368
  20
456.77426
  0
VERTEX
  5
22e
  8
Layer_0
  10
743.52405
  20
459.55499
  42
-0.31658158
  0
VERTEX
  5
22f
  8
Layer_0
  10
743.41382
  20
459.79034
  42
-0.31523242
  0
VERTEX
  5
230
  8
Layer_0
  10
743.59766
  20
459.97421
  42
-0.31535378
  0
VERTEX
  5
231
  8
Layer_0
  10
743.83331
  20
459.86432
  0
VERTEX
  5
232
  8
Layer_0
  10
746.42401
  20
459.86398
  0
VERTEX
  5
233
  8
Layer_0
  10
746.42401
  20
460.65497
  42
-0.31357759
  0
VERTEX
  5
234
  8
Layer_0
  10
746.35004
  20
460.81461
  42
-0.31538801
  0
VERTEX
  5
235
  8
Layer_0
  10
746.47443
  20
460.939
  42
-0.31990862
  0
VERTEX
  5
236
  8
Layer_0
  10
746.633
  20
460.86398
  0
SEQEND
  0
POLYLINE
  5
238
  8
Layer_0
  62
0
  66
1
  10
0
  20
0
  30
0
  0
VERTEX
  5
238
  8
Layer_0
  10
651.0473
  20
168.16931
  42
0.31541911
  0
VERTEX
  5
239
  8
Layer_0
  10
650.81165
  20
168.27921
  42
0.31531913
  0
VERTEX
  5
23a
  8
Layer_0
  10
650.62781
  20
168.09534
  42
0.31653575
  0
VERTEX
  5
23b
  8
Layer_0
  10
650.73804
  20
167.85999
  0
VERTEX
  5
23c
  8
Layer_0
  10
650.73767
  20
165.07928
  42
0.31524705
  0
VERTEX
  5
23d
  8
Layer_0
  10
650.62781
  20
164.84363
  42
0.31531913
  0
VERTEX
  5
23e
  8
Layer_0
  10
650.81165
  20
164.65976
  42
0.31666424
  0
VERTEX
  5
23f
  8
Layer_0
  10
651.047
  20
164.76999
  0
VERTEX
  5
240
  8
Layer_0
  10
653.638
  20
164.76999
  0
VERTEX
  5
241
  8
Layer_0
  10
653.63733
  20
163.97876
  42
0.31520712
  0
VERTEX
  5
242
  8
Layer_0
  10
653.56299
  20
163.81934
  42
0.31542955
  0
VERTEX
  5
243
  8
Layer_0
  10
653.68738
  20
163.69498
  42
0.31588295
  0
VERTEX
  5
244
  8
Layer_0
  10
653.84705
  20
163.76999
  0
VERTEX
  5
245
  8
Layer_0
  10
655.72821
  20
163.76932
  42
0.33942693
  0
VERTEX
  5
246
  8
Layer_0
  10
655.9007
  20
163.69788
  42
0.33950779
  0
VERTEX
  5
247
  8
Layer_0
  10
656.01434
  20
163.84598
  42
0.26619031
  0
VERTEX
  5
248
  8
Layer_0
  10
655.93799
  20
163.979
  0
VERTEX
  5
249
  8
Layer_0
  10
655.93799
  20
164.76999
  0
VERTEX
  5
24a
  8
Layer_0
  10
668.53802
  20
164.76999
  0
VERTEX
  5
24b
  8
Layer_0
  10
668.53802
  20
163.56998
  0
VERTEX
  5
24c
  8
Layer_0
  10
671.53802
  20
163.56998
  0
VERTEX
  5
24d
  8
Layer_0
  10
671.53802
  20
153.37
  0
VERTEX
  5
24e
  8
Layer_0
  10
668.53802
  20
153.37
  0
VERTEX
  5
24f
  8
Layer_0
  10
668.53802
  20
35.519592
  0
VERTEX
  5
250
  8
Layer_0
  10
653.72876
  20
35.519531
  42
0.31526032
  0
VERTEX
  5
251
  8
Layer_0
  10
653.50696
  20
35.622986
  42
0.31533127
  0
VERTEX
  5
252
  8
Layer_0
  10
653.33392
  20
35.449951
  42
0.31637598
  0
VERTEX
  5
253
  8
Layer_0
  10
653.43799
  20
35.22821
  0
VERTEX
  5
254
  8
Layer_0
  10
653.43799
  20
32.469604
  0
VERTEX
  5
255
  8
Layer_0
  10
638.03802
  20
32.469604
  0
VERTEX
  5
256
  8
Layer_0
  10
638.03772
  20
35.228149
  42
0.31521162
  0
VERTEX
  5
257
  8
Layer_0
  10
638.14111
  20
35.449951
  42
0.31533127
  0
VERTEX
  5
258
  8
Layer_0
  10
637.96808
  20
35.622986
  42
0.31456075
  0
VERTEX
  5
259
  8
Layer_0
  10
637.74603
  20
35.519592
  0
VERTEX
  5
25a
  8
Layer_0
  10
623.3288
  20
35.519531
  42
0.31526032
  0
VERTEX
  5
25b
  8
Layer_0
  10
623.10699
  20
35.622986
  42
0.31533127
  0
VERTEX
  5
25c
  8
Layer_0
  10
622.93396
  20
35.449951
  42
0.31637598
  0
VERTEX
  5
25d
  8
Layer_0
  10
623.03802
  20
35.22821
  0
VERTEX
  5
25e
  8
Layer_0
  10
623.03802
  20
32.469604
  0
VERTEX
  5
25f
  8
Layer_0
  10
607.638
  20
32.469604
  0
VERTEX
  5
260
  8
Layer_0
  10
607.6377
  20
35.228149
  42
0.31521162
  0
VERTEX
  5
261
  8
Layer_0
  10
607.74109
  20
35.449951
  42
0.31533127
  0
VERTEX
  5
262
  8
Layer_0
  10
607.56805
  20
35.622986
  42
0.31456075
  0
VERTEX
  5
263
  8
Layer_0
  10
607.34601
  20
35.519592
  0
VERTEX
  5
264
  8
Layer_0
  10
595.62582
  20
35.519531
  42
0.23837005
  0
VERTEX
  5
265
  8
Layer_0
  10
595.69302
  20
35.699829
  42
0.23760058
  0
VERTEX
  5
266
  8
Layer_0
  10
595.58801
  20
35.860962
  0
VERTEX
  5
267
  8
Layer_0
  10
595.58768
  20
141.07825
  42
0.3153444
  0
VERTEX
  5
268
  8
Layer_0
  10
595.6911
  20
141.30005
  42
0.31530621
  0
VERTEX
  5
269
  8
Layer_0
  10
595.51807
  20
141.47308
  42
0.31416029
  0
VERTEX
  5
26a
  8
Layer_0
  10
595.29602
  20
141.37
  0
VERTEX
  5
26b
  8
Layer_0
  10
592.53802
  20
141.37
  0
VERTEX
  5
26c
  8
Layer_0
  10
592.53802
  20
247.56998
  0
VERTEX
  5
26d
  8
Layer_0
  10
595.29626
  20
247.56934
  42
0.3153243
  0
VERTEX
  5
26e
  8
Layer_0
  10
595.51807
  20
247.46588
  42
0.31530621
  0
VERTEX
  5
26f
  8
Layer_0
  10
595.6911
  20
247.63892
  42
0.31418019
  0
VERTEX
  5
270
  8
Layer_0
  10
595.58801
  20
247.86096
  0
VERTEX
  5
271
  8
Layer_0
  10
595.58768
  20
353.07822
  42
0.31539303
  0
VERTEX
  5
272
  8
Layer_0
  10
595.6911
  20
353.30002
  42
0.31535227
  0
VERTEX
  5
273
  8
Layer_0
  10
595.51807
  20
353.47305
  42
0.31418159
  0
VERTEX
  5
274
  8
Layer_0
  10
595.29602
  20
353.37
  0
VERTEX
  5
275
  8
Layer_0
  10
592.53802
  20
353.37
  0
VERTEX
  5
276
  8
Layer_0
  10
592.53802
  20
459.56998
  0
VERTEX
  5
277
  8
Layer_0
  10
595.29626
  20
459.56934
  42
0.31539303
  0
VERTEX
  5
278
  8
Layer_0
  10
595.51807
  20
459.46591
  42
0.31535227
  0
VERTEX
  5
279
  8
Layer_0
  10
595.6911
  20
459.63895
  42
0.31422877
  0
VERTEX
  5
27a
  8
Layer_0
  10
595.58801
  20
459.86099
  0
VERTEX
  5
27b
  8
Layer_0
  10
595.58768
  20
565.07825
  42
0.23851526
  0
VERTEX
  5
27c
  8
Layer_0
  10
595.69302
  20
565.23932
  42
0.23700157
  0
VERTEX
  5
27d
  8
Layer_0
  10
595.62601
  20
565.41998
  0
VERTEX
  5
27e
  8
Layer_0
  10
607.34601
  20
565.41998
  42
0.2684036
  0
VERTEX
  5
27f
  8
Layer_0
  10
607.53101
  20
565.31268
  42
0.33952685
  0
VERTEX
  5
280
  8
Layer_0
  10
607.73706
  20
565.47076
  42
0.33954731
  0
VERTEX
  5
281
  8
Layer_0
  10
607.6377
  20
565.71075
  0
VERTEX
  5
282
  8
Layer_0
  10
607.638
  20
568.46997
  0
VERTEX
  5
283
  8
Layer_0
  10
623.03802
  20
568.46997
  0
VERTEX
  5
284
  8
Layer_0
  10
623.03802
  20
565.711
  42
0.33990362
  0
VERTEX
  5
285
  8
Layer_0
  10
622.93799
  20
565.47076
  42
0.33952685
  0
VERTEX
  5
286
  8
Layer_0
  10
623.14404
  20
565.31268
  42
0.26797069
  0
VERTEX
  5
287
  8
Layer_0
  10
623.3288
  20
565.41931
  0
VERTEX
  5
288
  8
Layer_0
  10
637.74603
  20
565.41998
  42
0.2684036
  0
VERTEX
  5
289
  8
Layer_0
  10
637.93103
  20
565.31268
  42
0.33952685
  0
VERTEX
  5
28a
  8
Layer_0
  10
638.13708
  20
565.47076
  42
0.33954731
  0
VERTEX
  5
28b
  8
Layer_0
  10
638.03772
  20
565.71075
  0
VERTEX
  5
28c
  8
Layer_0
  10
638.03802
  20
568.46997
  0
VERTEX
  5
28d
  8
Layer_0
  10
653.43799
  20
568.46997
  0
VERTEX
  5
28e
  8
Layer_0
  10
653.43799
  20
565.711
  42
0.33990362
  0
VERTEX
  5
28f
  8
Layer_0
  10
653.33795
  20
565.47076
  42
0.33952685
  0
VERTEX
  5
290
  8
Layer_0
  10
653.54401
  20
565.31268
  42
0.26797069
  0
VERTEX
  5
291
  8
Layer_0
  10
653.72876
  20
565.41931
  0
VERTEX
  5
292
  8
Layer_0
  10
668.53802
  20
565.41998
  0
VERTEX
  5
293
  8
Layer_0
  10
668.53802
  20
447.56998
  0
VERTEX
  5
294
  8
Layer_0
  10
671.53802
  20
447.56998
  0
VERTEX
  5
295
  8
Layer_0
  10
671.53802
  20
437.37
  0
VERTEX
  5
296
  8
Layer_0
  10
668.53802
  20
437.37
  0
VERTEX
  5
297
  8
Layer_0
  10
668.53802
  20
436.16998
  0
VERTEX
  5
298
  8
Layer_0
  10
655.93799
  20
436.16998
  0
VERTEX
  5
299
  8
Layer_0
  10
655.93799
  20
436.95999
  42
0.2663194
  0
VERTEX
  5
29a
  8
Layer_0
  10
656.01434
  20
437.09299
  42
0.33956698
  0
VERTEX
  5
29b
  8
Layer_0
  10
655.9007
  20
437.24109
  42
0.33945758
  0
VERTEX
  5
29c
  8
Layer_0
  10
655.72821
  20
437.16965
  0
VERTEX
  5
29d
  8
Layer_0
  10
653.84705
  20
437.16998
  42
0.31370563
  0
VERTEX
  5
29e
  8
Layer_0
  10
653.68738
  20
437.24399
  42
0.31538801
  0
VERTEX
  5
29f
  8
Layer_0
  10
653.56299
  20
437.1196
  42
0.31526344
  0
VERTEX
  5
2a0
  8
Layer_0
  10
653.63733
  20
436.96021
  0
VERTEX
  5
2a1
  8
Layer_0
  10
653.638
  20
436.16998
  0
VERTEX
  5
2a2
  8
Layer_0
  10
651.047
  20
436.16998
  42
0.31514687
  0
VERTEX
  5
2a3
  8
Layer_0
  10
650.81165
  20
436.27921
  42
0.31523242
  0
VERTEX
  5
2a4
  8
Layer_0
  10
650.62781
  20
436.09534
  42
0.3152928
  0
VERTEX
  5
2a5
  8
Layer_0
  10
650.73767
  20
435.85968
  0
VERTEX
  5
2a6
  8
Layer_0
  10
650.73804
  20
433.07898
  42
0.31658158
  0
VERTEX
  5
2a7
  8
Layer_0
  10
650.62781
  20
432.84363
  42
0.31523242
  0
VERTEX
  5
2a8
  8
Layer_0
  10
650.81165
  20
432.65976
  42
0.31535378
  0
VERTEX
  5
2a9
  8
Layer_0
  10
651.0473
  20
432.76965
  0
VERTEX
  5
2aa
  8
Layer_0
  10
653.638
  20
432.76999
  0
VERTEX
  5
2ab
  8
Layer_0
  10
653.638
  20
431.97897
  42
0.31589846
  0
VERTEX
  5
2ac
  8
Layer_0
  10
653.56299
  20
431.81937
  42
0.31538801
  0
VERTEX
  5
2ad
  8
Layer_0
  10
653.68738
  20
431.69498
  42
0.31532656
  0
VERTEX
  5
2ae
  8
Layer_0
  10
653.8468
  20
431.76932
  0
VERTEX
  5
2af
  8
Layer_0
  10
655.72803
  20
431.76999
  42
0.3401628
  0
VERTEX
  5
2b0
  8
Layer_0
  10
655.9007
  20
431.69788
  42
0.33956698
  0
VERTEX
  5
2b1
  8
Layer_0
  10
656.01434
  20
431.84598
  42
0.26797536
  0
VERTEX
  5
2b2
  8
Layer_0
  10
655.93768
  20
431.97876
  0
VERTEX
  5
2b3
  8
Layer_0
  10
655.93799
  20
432.76999
  0
VERTEX
  5
2b4
  8
Layer_0
  10
668.53802
  20
432.76999
  0
VERTEX
  5
2b5
  8
Layer_0
  10
668.53802
  20
431.56998
  0
VERTEX
  5
2b6
  8
Layer_0
  10
671.53802
  20
431.56998
  0
VERTEX
  5
2b7
  8
Layer_0
  10
671.53802
  20
421.37
  0
VERTEX
  5
2b8
  8
Layer_0
  10
668.53802
  20
421.37
  0
VERTEX
  5
2b9
  8
Layer_0
  10
668.53802
  20
179.56998
  0
VERTEX
  5
2ba
  8
Layer_0
  10
671.53802
  20
179.56998
  0
VERTEX
  5
2bb
  8
Layer_0
  10
671.53802
  20
169.37
  0
VERTEX
  5
2bc
  8
Layer_0
  10
668.53802
  20
169.37
  0
VERTEX
  5
2bd
  8
Layer_0
  10
668.53802
  20
168.16998
  0
VERTEX
  5
2be
  8
Layer_0
  10
655.93799
  20
168.16998
  0
VERTEX
  5
2bf
  8
Layer_0
  10
655.93799
  20
168.95996
  42
0.26619031
  0
VERTEX
  5
2c0
  8
Layer_0
  10
656.01434
  20
169.09299
  42
0.33950779
  0
VERTEX
  5
2c1
  8
Layer_0
  10
655.9007
  20
169.24109
  42
0.33942693
  0
VERTEX
  5
2c2
  8
Layer_0
  10
655.72821
  20
169.16965
  0
VERTEX
  5
2c3
  8
Layer_0
  10
653.84705
  20
169.16998
  42
0.31373855
  0
VERTEX
  5
2c4
  8
Layer_0
  10
653.68738
  20
169.24399
  42
0.31542955
  0
VERTEX
  5
2c5
  8
Layer_0
  10
653.56299
  20
169.11963
  42
0.31520712
  0
VERTEX
  5
2c6
  8
Layer_0
  10
653.63733
  20
168.96021
  0
VERTEX
  5
2c7
  8
Layer_0
  10
653.638
  20
168.16998
  0
VERTEX
  5
2c8
  8
Layer_0
  10
651.0473
  20
168.16931
  0
SEQEND
  0
POLYLINE
  5
2ca
  8
Layer_0
  62
0
  66
1
  10
0
  20
0
  30
0
  0
VERTEX
  5
2ca
  8
Layer_0
  10
595.29602
  20
565.37
  0
VERTEX
  5
2cb
  8
Layer_0
  10
592.53802
  20
565.37
  0
VERTEX
  5
2cc
  8
Layer_0
  10
592.53802
  20
565.41998
  0
VERTEX
  5
2cd
  8
Layer_0
  10
595.33603
  20
565.41998
  42
0.066483942
  0
VERTEX
  5
2ce
  8
Layer_0
  10
595.29602
  20
565.37
  0
SEQEND
  0
POLYLINE
  5
2d0
  8
Layer_0
  62
0
  66
1
  10
0
  20
0
  30
0
  0
VERTEX
  5
2d0
  8
Layer_0
  10
595.29602
  20
35.56958
  0
VERTEX
  5
2d1
  8
Layer_0
  10
592.53802
  20
35.56958
  0
VERTEX
  5
2d2
  8
Layer_0
  10
592.53802
  20
35.519592
  0
VERTEX
  5
2d3
  8
Layer_0
  10
595.33603
  20
35.519592
  42
-0.072267079
  0
VERTEX
  5
2d4
  8
Layer_0
  10
595.29602
  20
35.56958
  0
SEQEND
  0
POLYLINE
  5
2d6
  8
Layer_0
  62
0
  66
1
  10
0
  20
0
  30
0
  0
VERTEX
  5
2d6
  8
Layer_0
  10
745.80896
  20
227.69998
  0
VERTEX
  5
2d7
  8
Layer_0
  10
747.69019
  20
227.70065
  42
-0.33945758
  0
VERTEX
  5
2d8
  8
Layer_0
  10
747.86267
  20
227.77209
  42
-0.33956698
  0
VERTEX
  5
2d9
  8
Layer_0
  10
747.97632
  20
227.62399
  42
-0.26619031
  0
VERTEX
  5
2da
  8
Layer_0
  10
747.89996
  20
227.49097
  0
VERTEX
  5
2db
  8
Layer_0
  10
747.89996
  20
226.69998
  0
VERTEX
  5
2dc
  8
Layer_0
  10
760.5
  20
226.69998
  0
VERTEX
  5
2dd
  8
Layer_0
  10
760.5
  20
227.89999
  0
VERTEX
  5
2de
  8
Layer_0
  10
763.5
  20
227.89999
  0
VERTEX
  5
2df
  8
Layer_0
  10
763.5
  20
238.09998
  0
VERTEX
  5
2e0
  8
Layer_0
  10
760.5
  20
238.09998
  0
VERTEX
  5
2e1
  8
Layer_0
  10
760.5
  20
328
  0
VERTEX
  5
2e2
  8
Layer_0
  10
745.20001
  20
328
  0
VERTEX
  5
2e3
  8
Layer_0
  10
745.20001
  20
325
  0
VERTEX
  5
2e4
  8
Layer_0
  10
730.20001
  20
325
  0
VERTEX
  5
2e5
  8
Layer_0
  10
730.20001
  20
328
  0
VERTEX
  5
2e6
  8
Layer_0
  10
714.79999
  20
328
  0
VERTEX
  5
2e7
  8
Layer_0
  10
714.79999
  20
325
  0
VERTEX
  5
2e8
  8
Layer_0
  10
699.79999
  20
325
  0
VERTEX
  5
2e9
  8
Layer_0
  10
699.79999
  20
328
  0
VERTEX
  5
2ea
  8
Layer_0
  10
684.5
  20
328
  0
VERTEX
  5
2eb
  8
Layer_0
  10
684.5
  20
325
  0
VERTEX
  5
2ec
  8
Layer_0
  10
687.54999
  20
325
  0
VERTEX
  5
2ed
  8
Layer_0
  10
687.54968
  20
285.39172
  42
-0.31517315
  0
VERTEX
  5
2ee
  8
Layer_0
  10
687.65308
  20
285.16992
  42
-0.31535227
  0
VERTEX
  5
2ef
  8
Layer_0
  10
687.48004
  20
284.99689
  42
-0.31405583
  0
VERTEX
  5
2f0
  8
Layer_0
  10
687.258
  20
285.09998
  0
VERTEX
  5
2f1
  8
Layer_0
  10
684.5
  20
285.09998
  0
VERTEX
  5
2f2
  8
Layer_0
  10
684.5
  20
244.89999
  0
VERTEX
  5
2f3
  8
Layer_0
  10
687.25824
  20
244.90063
  42
-0.31531204
  0
VERTEX
  5
2f4
  8
Layer_0
  10
687.48004
  20
245.00406
  42
-0.31535227
  0
VERTEX
  5
2f5
  8
Layer_0
  10
687.65308
  20
244.83102
  42
-0.31413672
  0
VERTEX
  5
2f6
  8
Layer_0
  10
687.54999
  20
244.60898
  0
VERTEX
  5
2f7
  8
Layer_0
  10
687.54968
  20
205.39172
  42
-0.31525415
  0
VERTEX
  5
2f8
  8
Layer_0
  10
687.65308
  20
205.16992
  42
-0.31535227
  0
VERTEX
  5
2f9
  8
Layer_0
  10
687.48004
  20
204.99689
  42
-0.31414787
  0
VERTEX
  5
2fa
  8
Layer_0
  10
687.258
  20
205.09998
  0
VERTEX
  5
2fb
  8
Layer_0
  10
684.5
  20
205.09998
  0
VERTEX
  5
2fc
  8
Layer_0
  10
684.5
  20
164.89999
  0
VERTEX
  5
2fd
  8
Layer_0
  10
687.25824
  20
164.90063
  42
-0.31531204
  0
VERTEX
  5
2fe
  8
Layer_0
  10
687.48004
  20
165.00406
  42
-0.31535227
  0
VERTEX
  5
2ff
  8
Layer_0
  10
687.65308
  20
164.83102
  42
-0.31413672
  0
VERTEX
  5
300
  8
Layer_0
  10
687.54999
  20
164.60898
  0
VERTEX
  5
301
  8
Layer_0
  10
687.54999
  20
124.99997
  0
VERTEX
  5
302
  8
Layer_0
  10
684.5
  20
124.99997
  0
VERTEX
  5
303
  8
Layer_0
  10
684.5
  20
121.99997
  0
VERTEX
  5
304
  8
Layer_0
  10
699.79999
  20
121.99997
  0
VERTEX
  5
305
  8
Layer_0
  10
699.79999
  20
124.99997
  0
VERTEX
  5
306
  8
Layer_0
  10
714.79999
  20
124.99997
  0
VERTEX
  5
307
  8
Layer_0
  10
714.79999
  20
121.99997
  0
VERTEX
  5
308
  8
Layer_0
  10
730.20001
  20
121.99997
  0
VERTEX
  5
309
  8
Layer_0
  10
730.20001
  20
124.99997
  0
VERTEX
  5
30a
  8
Layer_0
  10
745.20001
  20
124.99997
  0
VERTEX
  5
30b
  8
Layer_0
  10
745.20001
  20
121.99997
  0
VERTEX
  5
30c
  8
Layer_0
  10
760.5
  20
121.99997
  0
VERTEX
  5
30d
  8
Layer_0
  10
760.5
  20
211.89999
  0
VERTEX
  5
30e
  8
Layer_0
  10
763.5
  20
211.89999
  0
VERTEX
  5
30f
  8
Layer_0
  10
763.5
  20
222.09998
  0
VERTEX
  5
310
  8
Layer_0
  10
760.5
  20
222.09998
  0
VERTEX
  5
311
  8
Layer_0
  10
760.5
  20
223.29999
  0
VERTEX
  5
312
  8
Layer_0
  10
747.89996
  20
223.29999
  0
VERTEX
  5
313
  8
Layer_0
  10
747.89996
  20
222.50998
  42
-0.2663194
  0
VERTEX
  5
314
  8
Layer_0
  10
747.97632
  20
222.37698
  42
-0.33956698
  0
VERTEX
  5
315
  8
Layer_0
  10
747.86267
  20
222.22888
  42
-0.33945758
  0
VERTEX
  5
316
  8
Layer_0
  10
747.69019
  20
222.30032
  0
VERTEX
  5
317
  8
Layer_0
  10
745.80896
  20
222.29999
  42
-0.31779572
  0
VERTEX
  5
318
  8
Layer_0
  10
745.65039
  20
222.22598
  42
-0.31538801
  0
VERTEX
  5
319
  8
Layer_0
  10
745.526
  20
222.35037
  42
-0.31526344
  0
VERTEX
  5
31a
  8
Layer_0
  10
745.60034
  20
222.50977
  0
VERTEX
  5
31b
  8
Layer_0
  10
745.59998
  20
223.29999
  0
VERTEX
  5
31c
  8
Layer_0
  10
743.01001
  20
223.29999
  42
-0.3125962
  0
VERTEX
  5
31d
  8
Layer_0
  10
742.77362
  20
223.19073
  42
-0.31523242
  0
VERTEX
  5
31e
  8
Layer_0
  10
742.58978
  20
223.3746
  42
-0.3152928
  0
VERTEX
  5
31f
  8
Layer_0
  10
742.69965
  20
223.61026
  0
VERTEX
  5
320
  8
Layer_0
  10
742.70001
  20
226.39099
  42
-0.31658158
  0
VERTEX
  5
321
  8
Layer_0
  10
742.58978
  20
226.62634
  42
-0.31523242
  0
VERTEX
  5
322
  8
Layer_0
  10
742.77362
  20
226.81021
  42
-0.31535378
  0
VERTEX
  5
323
  8
Layer_0
  10
743.00928
  20
226.70032
  0
VERTEX
  5
324
  8
Layer_0
  10
745.59998
  20
226.69998
  0
VERTEX
  5
325
  8
Layer_0
  10
745.59998
  20
227.49097
  42
-0.31357759
  0
VERTEX
  5
326
  8
Layer_0
  10
745.526
  20
227.6506
  42
-0.31538801
  0
VERTEX
  5
327
  8
Layer_0
  10
745.65039
  20
227.77499
  42
-0.31990862
  0
VERTEX
  5
328
  8
Layer_0
  10
745.80896
  20
227.69998
  0
SEQEND
  0
POLYLINE
  5
32a
  8
Layer_0
  62
0
  66
1
  10
0
  20
0
  30
0
  0
VERTEX
  5
32a
  8
Layer_0
  10
841.0473
  20
168.16931
  42
0.31541911
  0
VERTEX
  5
32b
  8
Layer_0
  10
840.81165
  20
168.27921
  42
0.31531913
  0
VERTEX
  5
32c
  8
Layer_0
  10
840.62781
  20
168.09534
  42
0.31653575
  0
VERTEX
  5
32d
  8
Layer_0
  10
840.73804
  20
167.85999
  0
VERTEX
  5
32e
  8
Layer_0
  10
840.73767
  20
165.07928
  42
0.31524705
  0
VERTEX
  5
32f
  8
Layer_0
  10
840.62781
  20
164.84363
  42
0.31531913
  0
VERTEX
  5
330
  8
Layer_0
  10
840.81165
  20
164.65976
  42
0.31666424
  0
VERTEX
  5
331
  8
Layer_0
  10
841.047
  20
164.76999
  0
VERTEX
  5
332
  8
Layer_0
  10
843.638
  20
164.76999
  0
VERTEX
  5
333
  8
Layer_0
  10
843.63733
  20
163.97876
  42
0.31520712
  0
VERTEX
  5
334
  8
Layer_0
  10
843.56299
  20
163.81934
  42
0.31542955
  0
VERTEX
  5
335
  8
Layer_0
  10
843.68738
  20
163.69498
  42
0.31588295
  0
VERTEX
  5
336
  8
Layer_0
  10
843.84705
  20
163.76999
  0
VERTEX
  5
337
  8
Layer_0
  10
845.72821
  20
163.76932
  42
0.33942693
  0
VERTEX
  5
338
  8
Layer_0
  10
845.9007
  20
163.69788
  42
0.33950779
  0
VERTEX
  5
339
  8
Layer_0
  10
846.01434
  20
163.84598
  42
0.26619031
  0
VERTEX
  5
33a
  8
Layer_0
  10
845.93799
  20
163.979
  0
VERTEX
  5
33b
  8
Layer_0
  10
845.93799
  20
164.76999
  0
VERTEX
  5
33c
  8
Layer_0
  10
858.53802
  20
164.76999
  0
VERTEX
  5
33d
  8
Layer_0
  10
858.53802
  20
163.56998
  0
VERTEX
  5
33e
  8
Layer_0
  10
861.53802
  20
163.56998
  0
VERTEX
  5
33f
  8
Layer_0
  10
861.53802
  20
153.37
  0
VERTEX
  5
340
  8
Layer_0
  10
858.53802
  20
153.37
  0
VERTEX
  5
341
  8
Layer_0
  10
858.53802
  20
35.519592
  0
VERTEX
  5
342
  8
Layer_0
  10
843.72876
  20
35.519531
  42
0.31526032
  0
VERTEX
  5
343
  8
Layer_0
  10
843.50696
  20
35.622986
  42
0.31533127
  0
VERTEX
  5
344
  8
Layer_0
  10
843.33392
  20
35.449951
  42
0.31637598
  0
VERTEX
  5
345
  8
Layer_0
  10
843.43799
  20
35.22821
  0
VERTEX
  5
346
  8
Layer_0
  10
843.43799
  20
32.469604
  0
VERTEX
  5
347
  8
Layer_0
  10
828.03802
  20
32.469604
  0
VERTEX
  5
348
  8
Layer_0
  10
828.03772
  20
35.228149
  42
0.31521162
  0
VERTEX
  5
349
  8
Layer_0
  10
828.14111
  20
35.449951
  42
0.31533127
  0
VERTEX
  5
34a
  8
Layer_0
  10
827.96808
  20
35.622986
  42
0.31456075
  0
VERTEX
  5
34b
  8
Layer_0
  10
827.74603
  20
35.519592
  0
VERTEX
  5
34c
  8
Layer_0
  10
813.3288
  20
35.519531
  42
0.31526032
  0
VERTEX
  5
34d
  8
Layer_0
  10
813.10699
  20
35.622986
  42
0.31533127
  0
VERTEX
  5
34e
  8
Layer_0
  10
812.93396
  20
35.449951
  42
0.31637598
  0
VERTEX
  5
34f
  8
Layer_0
  10
813.03802
  20
35.22821
  0
VERTEX
  5
350
  8
Layer_0
  10
813.03802
  20
32.469604
  0
VERTEX
  5
351
  8
Layer_0
  10
797.638
  20
32.469604
  0
VERTEX
  5
352
  8
Layer_0
  10
797.6377
  20
35.228149
  42
0.31521162
  0
VERTEX
  5
353
  8
Layer_0
  10
797.74109
  20
35.449951
  42
0.31533127
  0
VERTEX
  5
354
  8
Layer_0
  10
797.56805
  20
35.622986
  42
0.31456075
  0
VERTEX
  5
355
  8
Layer_0
  10
797.34601
  20
35.519592
  0
VERTEX
  5
356
  8
Layer_0
  10
785.62582
  20
35.519531
  42
0.23837005
  0
VERTEX
  5
357
  8
Layer_0
  10
785.69302
  20
35.699829
  42
0.23760058
  0
VERTEX
  5
358
  8
Layer_0
  10
785.58801
  20
35.860962
  0
VERTEX
  5
359
  8
Layer_0
  10
785.58768
  20
141.07825
  42
0.3153444
  0
VERTEX
  5
35a
  8
Layer_0
  10
785.6911
  20
141.30005
  42
0.31530621
  0
VERTEX
  5
35b
  8
Layer_0
  10
785.51807
  20
141.47308
  42
0.31416029
  0
VERTEX
  5
35c
  8
Layer_0
  10
785.29602
  20
141.37
  0
VERTEX
  5
35d
  8
Layer_0
  10
782.53802
  20
141.37
  0
VERTEX
  5
35e
  8
Layer_0
  10
782.53802
  20
247.56998
  0
VERTEX
  5
35f
  8
Layer_0
  10
785.29626
  20
247.56934
  42
0.3153243
  0
VERTEX
  5
360
  8
Layer_0
  10
785.51807
  20
247.46588
  42
0.31530621
  0
VERTEX
  5
361
  8
Layer_0
  10
785.6911
  20
247.63892
  42
0.31418019
  0
VERTEX
  5
362
  8
Layer_0
  10
785.58801
  20
247.86096
  0
VERTEX
  5
363
  8
Layer_0
  10
785.58768
  20
353.07822
  42
0.31539303
  0
VERTEX
  5
364
  8
Layer_0
  10
785.6911
  20
353.30002
  42
0.31535227
  0
VERTEX
  5
365
  8
Layer_0
  10
785.51807
  20
353.47305
  42
0.31418159
  0
VERTEX
  5
366
  8
Layer_0
  10
785.29602
  20
353.37
  0
VERTEX
  5
367
  8
Layer_0
  10
782.53802
  20
353.37
  0
VERTEX
  5
368
  8
Layer_0
  10
782.53802
  20
459.56998
  0
VERTEX
  5
369
  8
Layer_0
  10
785.29626
  20
459.56934
  42
0.31539303
  0
VERTEX
  5
36a
  8
Layer_0
  10
785.51807
  20
459.46591
  42
0.31535227
  0
VERTEX
  5
36b
  8
Layer_0
  10
785.6911
  20
459.63895
  42
0.31422877
  0
VERTEX
  5
36c
  8
Layer_0
  10
785.58801
  20
459.86099
  0
VERTEX
  5
36d
  8
Layer_0
  10
785.58768
  20
565.07825
  42
0.23851526
  0
VERTEX
  5
36e
  8
Layer_0
  10
785.69302
  20
565.23932
  42
0.23700157
  0
VERTEX
  5
36f
  8
Layer_0
  10
785.62601
  20
565.41998
  0
VERTEX
  5
370
  8
Layer_0
  10
797.34601
  20
565.41998
  42
0.2684036
  0
VERTEX
  5
371
  8
Layer_0
  10
797.53101
  20
565.31268
  42
0.33952685
  0
VERTEX
  5
372
  8
Layer_0
  10
797.73706
  20
565.47076
  42
0.33954731
  0
VERTEX
  5
373
  8
Layer_0
  10
797.6377
  20
565.71075
  0
VERTEX
  5
374
  8
Layer_0
  10
797.638
  20
568.46997
  0
VERTEX
  5
375
  8
Layer_0
  10
813.03802
  20
568.46997
  0
VERTEX
  5
376
  8
Layer_0
  10
813.03802
  20
565.711
  42
0.33990362
  0
VERTEX
  5
377
  8
Layer_0
  10
812.93799
  20
565.47076
  42
0.33952685
  0
VERTEX
  5
378
  8
Layer_0
  10
813.14404
  20
565.31268
  42
0.26797069
  0
VERTEX
  5
379
  8
Layer_0
  10
813.3288
  20
565.41931
  0
VERTEX
  5
37a
  8
Layer_0
  10
827.74603
  20
565.41998
  42
0.2684036
  0
VERTEX
  5
37b
  8
Layer_0
  10
827.93103
  20
565.31268
  42
0.33952685
  0
VERTEX
  5
37c
  8
Layer_0
  10
828.13708
  20
565.47076
  42
0.33954731
  0
VERTEX
  5
37d
  8
Layer_0
  10
828.03772
  20
565.71075
  0
VERTEX
  5
37e
  8
Layer_0
  10
828.03802
  20
568.46997
  0
VERTEX
  5
37f
  8
Layer_0
  10
843.43799
  20
568.46997
  0
VERTEX
  5
380
  8
Layer_0
  10
843.43799
  20
565.711
  42
0.33990362
  0
VERTEX
  5
381
  8
Layer_0
  10
843.33795
  20
565.47076
  42
0.33952685
  0
VERTEX
  5
382
  8
Layer_0
  10
843.54401
  20
565.31268
  42
0.26797069
  0
VERTEX
  5
383
  8
Layer_0
  10
843.72876
  20
565.41931
  0
VERTEX
  5
384
  8
Layer_0
  10
858.53802
  20
565.41998
  0
VERTEX
  5
385
  8
Layer_0
  10
858.53802
  20
447.56998
  0
VERTEX
  5
386
  8
Layer_0
  10
861.53802
  20
447.56998
  0
VERTEX
  5
387
  8
Layer_0
  10
861.53802
  20
437.37
  0
VERTEX
  5
388
  8
Layer_0
  10
858.53802
  20
437.37
  0
VERTEX
  5
389
  8
Layer_0
  10
858.53802
  20
436.16998
  0
VERTEX
  5
38a
  8
Layer_0
  10
845.93799
  20
436.16998
  0
VERTEX
  5
38b
  8
Layer_0
  10
845.93799
  20
436.95999
  42
0.2663194
  0
VERTEX
  5
38c
  8
Layer_0
  10
846.01434
  20
437.09299
  42
0.33956698
  0
VERTEX
  5
38d
  8
Layer_0
  10
845.9007
  20
437.24109
  42
0.33945758
  0
VERTEX
  5
38e
  8
Layer_0
  10
845.72821
  20
437.16965
  0
VERTEX
  5
38f
  8
Layer_0
  10
843.84705
  20
437.16998
  42
0.31370563
  0
VERTEX
  5
390
  8
Layer_0
  10
843.68738
  20
437.24399
  42
0.31538801
  0
VERTEX
  5
391
  8
Layer_0
  10
843.56299
  20
437.1196
  42
0.31526344
  0
VERTEX
  5
392
  8
Layer_0
  10
843.63733
  20
436.96021
  0
VERTEX
  5
393
  8
Layer_0
  10
843.638
  20
436.16998
  0
VERTEX
  5
394
  8
Layer_0
  10
841.047
  20
436.16998
  42
0.31514687
  0
VERTEX
  5
395
  8
Layer_0
  10
840.81165
  20
436.27921
  42
0.31523242
  0
VERTEX
  5
396
  8
Layer_0
  10
840.62781
  20
436.09534
  42
0.3152928
  0
VERTEX
  5
397
  8
Layer_0
  10
840.73767
  20
435.85968
  0
VERTEX
  5
398
  8
Layer_0
  10
840.73804
  20
433.07898
  42
0.31658158
  0
VERTEX
  5
399
  8
Layer_0
  10
840.62781
  20
432.84363
  42
0.31523242
  0
VERTEX
  5
39a
  8
Layer_0
  10
840.81165
  20
432.65976
  42
0.31535378
  0
VERTEX
  5
39b
  8
Layer_0
  10
841.0473
  20
432.76965
  0
VERTEX
  5
39c
  8
Layer_0
  10
843.638
  20
432.76999
  0
VERTEX
  5
39d
  8
Layer_0
  10
843.638
  20
431.97897
  42
0.31589846
  0
VERTEX
  5
39e
  8
Layer_0
  10
843.56299
  20
431.81937
  42
0.31538801
  0
VERTEX
  5
39f
  8
Layer_0
  10
843.68738
  20
431.69498
  42
0.31532656
  0
VERTEX
  5
3a0
  8
Layer_0
  10
843.8468
  20
431.76932
  0
VERTEX
  5
3a1
  8
Layer_0
  10
845.72803
  20
431.76999
  42
0.3401628
  0
VERTEX
  5
3a2
  8
Layer_0
  10
845.9007
  20
431.69788
  42
0.33956698
  0
VERTEX
  5
3a3
  8
Layer_0
  10
846.01434
  20
431.84598
  42
0.26797536
  0
VERTEX
  5
3a4
  8
Layer_0
  10
845.93768
  20
431.97876
  0
VERTEX
  5
3a5
  8
Layer_0
  10
845.93799
  20
432.76999
  0
VERTEX
  5
3a6
  8
Layer_0
  10
858.53802
  20
432.76999
  0
VERTEX
  5
3a7
  8
Layer_0
  10
858.53802
  20
431.56998
  0
VERTEX
  5
3a8
  8
Layer_0
  10
861.53802
  20
431.56998
  0
VERTEX
  5
3a9
  8
Layer_0
  10
861.53802
  20
421.37
  0
VERTEX
  5
3aa
  8
Layer_0
  10
858.53802
  20
421.37
  0
VERTEX
  5
3ab
  8
Layer_0
  10
858.53802
  20
179.56998
  0
VERTEX
  5
3ac
  8
Layer_0
  10
861.53802
  20
179.56998
  0
VERTEX
  5
3ad
  8
Layer_0
  10
861.53802
  20
169.37
  0
VERTEX
  5
3ae
  8
Layer_0
  10
858.53802
  20
169.37
  0
VERTEX
  5
3af
  8
Layer_0
  10
858.53802
  20
168.16998
  0
VERTEX
  5
3b0
  8
Layer_0
  10
845.93799
  20
168.16998
  0
VERTEX
  5
3b1
  8
Layer_0
  10
845.93799
  20
168.95996
  42
0.26619031
  0
VERTEX
  5
3b2
  8
Layer_0
  10
846.01434
  20
169.09299
  42
0.33950779
  0
VERTEX
  5
3b3
  8
Layer_0
  10
845.9007
  20
169.24109
  42
0.33942693
  0
VERTEX
  5
3b4
  8
Layer_0
  10
845.72821
  20
169.16965
  0
VERTEX
  5
3b5
  8
Layer_0
  10
843.84705
  20
169.16998
  42
0.31373855
  0
VERTEX
  5
3b6
  8
Layer_0
  10
843.68738
  20
169.24399
  42
0.31542955
  0
VERTEX
  5
3b7
  8
Layer_0
  10
843.56299
  20
169.11963
  42
0.31520712
  0
VERTEX
  5
3b8
  8
Layer_0
  10
843.63733
  20
168.96021
  0
VERTEX
  5
3b9
  8
Layer_0
  10
843.638
  20
168.16998
  0
VERTEX
  5
3ba
  8
Layer_0
  10
841.0473
  20
168.16931
  0
SEQEND
  0
POLYLINE
  5
3bc
  8
Layer_0
  62
0
  66
1
  10
0
  20
0
  30
0
  0
VERTEX
  5
3bc
  8
Layer_0
  10
785.29602
  20
565.37
  0
VERTEX
  5
3bd
  8
Layer_0
  10
782.53802
  20
565.37
  0
VERTEX
  5
3be
  8
Layer_0
  10
782.53802
  20
565.41998
  0
VERTEX
  5
3bf
  8
Layer_0
  10
785.33603
  20
565.41998
  42
0.066483942
  0
VERTEX
  5
3c0
  8
Layer_0
  10
785.29602
  20
565.37
  0
SEQEND
  0
POLYLINE
  5
3c2
  8
Layer_0
  62
0
  66
1
  10
0
  20
0
  30
0
  0
VERTEX
  5
3c2
  8
Layer_0
  10
785.29602
  20
35.56958
  0
VERTEX
  5
3c3
  8
Layer_0
  10
782.53802
  20
35.56958
  0
VERTEX
  5
3c4
  8
Layer_0
  10
782.53802
  20
35.519592
  0
VERTEX
  5
3c5
  8
Layer_0
  10
785.33603
  20
35.519592
  42
-0.072267078
  0
VERTEX
  5
3c6
  8
Layer_0
  10
785.29602
  20
35.56958
  0
SEQEND
  0
POLYLINE
  5
3c8
  8
Layer_0
  62
0
  66
1
  10
0
  20
0
  30
0
  0
VERTEX
  5
3c8
  8
Layer_0
  10
644.5
  20
85.599976
  0
VERTEX
  5
3c9
  8
Layer_0
  10
657.5
  20
85.599976
  0
VERTEX
  5
3ca
  8
Layer_0
  10
657.5
  20
66.400024
  0
VERTEX
  5
3cb
  8
Layer_0
  10
644.5
  20
66.400024
  0
VERTEX
  5
3cc
  8
Layer_0
  10
644.5
  20
85.599976
  0
SEQEND
  0
POLYLINE
  5
3ce
  8
Layer_0
  62
0
  66
1
  10
0
  20
0
  30
0
  0
VERTEX
  5
3ce
  8
Layer_0
  10
841.5
  20
80.75
  0
VERTEX
  5
3cf
  8
Layer_0
  10
850.5
  20
80.75
  0
VERTEX
  5
3d0
  8
Layer_0
  10
850.5
  20
69.25
  0
VERTEX
  5
3d1
  8
Layer_0
  10
841.5
  20
69.25
  0
VERTEX
  5
3d2
  8
Layer_0
  10
841.5
  20
80.75
  0
SEQEND
  0
POLYLINE
  5
3d4
  8
Layer_0
  62
0
  66
1
  10
0
  20
0
  30
0
  0
VERTEX
  5
3d4
  8
Layer_0
  10
368.69934
  20
753.49072
  42
0.31541911
  0
VERTEX
  5
3d5
  8
Layer_0
  10
368.8092
  20
753.72638
  42
0.31531913
  0
VERTEX
  5
3d6
  8
Layer_0
  10
368.62537
  20
753.91022
  42
0.31653575
  0
VERTEX
  5
3d7
  8
Layer_0
  10
368.39001
  20
753.79999
  0
VERTEX
  5
3d8
  8
Layer_0
  10
365.60925
  20
753.80035
  42
0.31524705
  0
VERTEX
  5
3d9
  8
Layer_0
  10
365.3736
  20
753.91022
  42
0.31531913
  0
VERTEX
  5
3da
  8
Layer_0
  10
365.18976
  20
753.72638
  42
0.31666424
  0
VERTEX
  5
3db
  8
Layer_0
  10
365.29999
  20
753.49103
  0
VERTEX
  5
3dc
  8
Layer_0
  10
365.29999
  20
750.90002
  0
VERTEX
  5
3dd
  8
Layer_0
  10
364.50879
  20
750.9007
  42
0.31520712
  0
VERTEX
  5
3de
  8
Layer_0
  10
364.34937
  20
750.97504
  42
0.31542955
  0
VERTEX
  5
3df
  8
Layer_0
  10
364.22498
  20
750.85065
  42
0.31588295
  0
VERTEX
  5
3e0
  8
Layer_0
  10
364.29999
  20
750.69098
  0
VERTEX
  5
3e1
  8
Layer_0
  10
364.29932
  20
748.80981
  42
0.33942693
  0
VERTEX
  5
3e2
  8
Layer_0
  10
364.22791
  20
748.63733
  42
0.33950779
  0
VERTEX
  5
3e3
  8
Layer_0
  10
364.37598
  20
748.52368
  42
0.26619031
  0
VERTEX
  5
3e4
  8
Layer_0
  10
364.50897
  20
748.60004
  0
VERTEX
  5
3e5
  8
Layer_0
  10
365.29999
  20
748.60004
  0
VERTEX
  5
3e6
  8
Layer_0
  10
365.29999
  20
736
  0
VERTEX
  5
3e7
  8
Layer_0
  10
364.09998
  20
736
  0
VERTEX
  5
3e8
  8
Layer_0
  10
364.09998
  20
733
  0
VERTEX
  5
3e9
  8
Layer_0
  10
353.89996
  20
733
  0
VERTEX
  5
3ea
  8
Layer_0
  10
353.89996
  20
736
  0
VERTEX
  5
3eb
  8
Layer_0
  10
236.04956
  20
736
  0
VERTEX
  5
3ec
  8
Layer_0
  10
236.04956
  20
750.80927
  42
0.31526032
  0
VERTEX
  5
3ed
  8
Layer_0
  10
236.15295
  20
751.03107
  42
0.31533127
  0
VERTEX
  5
3ee
  8
Layer_0
  10
235.97992
  20
751.2041
  42
0.31637598
  0
VERTEX
  5
3ef
  8
Layer_0
  10
235.75818
  20
751.10004
  0
VERTEX
  5
3f0
  8
Layer_0
  10
232.99957
  20
751.10004
  0
VERTEX
  5
3f1
  8
Layer_0
  10
232.99957
  20
766.5
  0
VERTEX
  5
3f2
  8
Layer_0
  10
235.75812
  20
766.50031
  42
0.31521162
  0
VERTEX
  5
3f3
  8
Layer_0
  10
235.97992
  20
766.39691
  42
0.31533127
  0
VERTEX
  5
3f4
  8
Layer_0
  10
236.15295
  20
766.56995
  42
0.31456075
  0
VERTEX
  5
3f5
  8
Layer_0
  10
236.04956
  20
766.79199
  0
VERTEX
  5
3f6
  8
Layer_0
  10
236.04956
  20
781.20923
  42
0.31526032
  0
VERTEX
  5
3f7
  8
Layer_0
  10
236.15295
  20
781.43103
  42
0.31533127
  0
VERTEX
  5
3f8
  8
Layer_0
  10
235.97992
  20
781.60406
  42
0.31637598
  0
VERTEX
  5
3f9
  8
Layer_0
  10
235.75818
  20
781.5
  0
VERTEX
  5
3fa
  8
Layer_0
  10
232.99957
  20
781.5
  0
VERTEX
  5
3fb
  8
Layer_0
  10
232.99957
  20
796.90002
  0
VERTEX
  5
3fc
  8
Layer_0
  10
235.75812
  20
796.90033
  42
0.31521162
  0
VERTEX
  5
3fd
  8
Layer_0
  10
235.97992
  20
796.79694
  42
0.31533127
  0
VERTEX
  5
3fe
  8
Layer_0
  10
236.15295
  20
796.96997
  42
0.31456075
  0
VERTEX
  5
3ff
  8
Layer_0
  10
236.04956
  20
797.19202
  0
VERTEX
  5
400
  8
Layer_0
  10
236.0495
  20
808.9122
  42
0.23837005
  0
VERTEX
  5
401
  8
Layer_0
  10
236.22986
  20
808.845
  42
0.23760058
  0
VERTEX
  5
402
  8
Layer_0
  10
236.39099
  20
808.95001
  0
VERTEX
  5
403
  8
Layer_0
  10
341.60828
  20
808.95035
  42
0.3153444
  0
VERTEX
  5
404
  8
Layer_0
  10
341.83008
  20
808.84692
  42
0.31530621
  0
VERTEX
  5
405
  8
Layer_0
  10
342.00311
  20
809.01996
  42
0.31416029
  0
VERTEX
  5
406
  8
Layer_0
  10
341.90002
  20
809.242
  0
VERTEX
  5
407
  8
Layer_0
  10
341.90002
  20
812
  0
VERTEX
  5
408
  8
Layer_0
  10
448.09998
  20
812
  0
VERTEX
  5
409
  8
Layer_0
  10
448.09933
  20
809.24176
  42
0.3153243
  0
VERTEX
  5
40a
  8
Layer_0
  10
447.99591
  20
809.01996
  42
0.31530621
  0
VERTEX
  5
40b
  8
Layer_0
  10
448.16895
  20
808.84692
  42
0.31418019
  0
VERTEX
  5
40c
  8
Layer_0
  10
448.39099
  20
808.95001
  0
VERTEX
  5
40d
  8
Layer_0
  10
553.60822
  20
808.95032
  42
0.31539303
  0
VERTEX
  5
40e
  8
Layer_0
  10
553.83002
  20
808.84689
  42
0.31535227
  0
VERTEX
  5
40f
  8
Layer_0
  10
554.00305
  20
809.01993
  42
0.31418159
  0
VERTEX
  5
410
  8
Layer_0
  10
553.89999
  20
809.24197
  0
VERTEX
  5
411
  8
Layer_0
  10
553.89999
  20
811.99997
  0
VERTEX
  5
412
  8
Layer_0
  10
660.09998
  20
811.99997
  0
VERTEX
  5
413
  8
Layer_0
  10
660.09933
  20
809.24173
  42
0.31539303
  0
VERTEX
  5
414
  8
Layer_0
  10
659.99591
  20
809.01993
  42
0.31535227
  0
VERTEX
  5
415
  8
Layer_0
  10
660.16895
  20
808.84689
  42
0.31422877
  0
VERTEX
  5
416
  8
Layer_0
  10
660.39099
  20
808.94998
  0
VERTEX
  5
417
  8
Layer_0
  10
765.60828
  20
808.95032
  42
0.23851526
  0
VERTEX
  5
418
  8
Layer_0
  10
765.76935
  20
808.84497
  42
0.23700157
  0
VERTEX
  5
419
  8
Layer_0
  10
765.95001
  20
808.91199
  0
VERTEX
  5
41a
  8
Layer_0
  10
765.95001
  20
797.19202
  42
0.2684036
  0
VERTEX
  5
41b
  8
Layer_0
  10
765.84271
  20
797.00702
  42
0.33952685
  0
VERTEX
  5
41c
  8
Layer_0
  10
766.00079
  20
796.80096
  42
0.33954731
  0
VERTEX
  5
41d
  8
Layer_0
  10
766.24078
  20
796.90033
  0
VERTEX
  5
41e
  8
Layer_0
  10
769
  20
796.90002
  0
VERTEX
  5
41f
  8
Layer_0
  10
769
  20
781.5
  0
VERTEX
  5
420
  8
Layer_0
  10
766.24103
  20
781.5
  42
0.33990362
  0
VERTEX
  5
421
  8
Layer_0
  10
766.00079
  20
781.60004
  42
0.33952685
  0
VERTEX
  5
422
  8
Layer_0
  10
765.84271
  20
781.39398
  42
0.26797069
  0
VERTEX
  5
423
  8
Layer_0
  10
765.94934
  20
781.20923
  0
VERTEX
  5
424
  8
Layer_0
  10
765.95001
  20
766.79199
  42
0.2684036
  0
VERTEX
  5
425
  8
Layer_0
  10
765.84271
  20
766.60699
  42
0.33952685
  0
VERTEX
  5
426
  8
Layer_0
  10
766.00079
  20
766.40094
  42
0.33954731
  0
VERTEX
  5
427
  8
Layer_0
  10
766.24078
  20
766.50031
  0
VERTEX
  5
428
  8
Layer_0
  10
769
  20
766.5
  0
VERTEX
  5
429
  8
Layer_0
  10
769
  20
751.10004
  0
VERTEX
  5
42a
  8
Layer_0
  10
766.24103
  20
751.10004
  42
0.33990362
  0
VERTEX
  5
42b
  8
Layer_0
  10
766.00079
  20
751.20007
  42
0.33952685
  0
VERTEX
  5
42c
  8
Layer_0
  10
765.84271
  20
750.99402
  42
0.26797069
  0
VERTEX
  5
42d
  8
Layer_0
  10
765.94934
  20
750.80927
  0
VERTEX
  5
42e
  8
Layer_0
  10
765.95001
  20
736
  0
VERTEX
  5
42f
  8
Layer_0
  10
648.09998
  20
736
  0
VERTEX
  5
430
  8
Layer_0
  10
648.09998
  20
733
  0
VERTEX
  5
431
  8
Layer_0
  10
637.89999
  20
733
  0
VERTEX
  5
432
  8
Layer_0
  10
637.89999
  20
736
  0
VERTEX
  5
433
  8
Layer_0
  10
636.69998
  20
736
  0
VERTEX
  5
434
  8
Layer_0
  10
636.69998
  20
748.60004
  0
VERTEX
  5
435
  8
Layer_0
  10
637.48999
  20
748.60004
  42
0.2663194
  0
VERTEX
  5
436
  8
Layer_0
  10
637.62299
  20
748.52368
  42
0.33956698
  0
VERTEX
  5
437
  8
Layer_0
  10
637.77109
  20
748.63733
  42
0.33945758
  0
VERTEX
  5
438
  8
Layer_0
  10
637.69965
  20
748.80981
  0
VERTEX
  5
439
  8
Layer_0
  10
637.69998
  20
750.69098
  42
0.31370563
  0
VERTEX
  5
43a
  8
Layer_0
  10
637.77399
  20
750.85065
  42
0.31538801
  0
VERTEX
  5
43b
  8
Layer_0
  10
637.6496
  20
750.97504
  42
0.31526344
  0
VERTEX
  5
43c
  8
Layer_0
  10
637.4902
  20
750.9007
  0
VERTEX
  5
43d
  8
Layer_0
  10
636.69998
  20
750.90002
  0
VERTEX
  5
43e
  8
Layer_0
  10
636.69998
  20
753.49103
  42
0.31514687
  0
VERTEX
  5
43f
  8
Layer_0
  10
636.8092
  20
753.72638
  42
0.31523242
  0
VERTEX
  5
440
  8
Layer_0
  10
636.62534
  20
753.91022
  42
0.3152928
  0
VERTEX
  5
441
  8
Layer_0
  10
636.38968
  20
753.80035
  0
VERTEX
  5
442
  8
Layer_0
  10
633.60898
  20
753.79999
  42
0.31658158
  0
VERTEX
  5
443
  8
Layer_0
  10
633.37363
  20
753.91022
  42
0.31523242
  0
VERTEX
  5
444
  8
Layer_0
  10
633.18976
  20
753.72638
  42
0.31535378
  0
VERTEX
  5
445
  8
Layer_0
  10
633.29965
  20
753.49072
  0
VERTEX
  5
446
  8
Layer_0
  10
633.29999
  20
750.90002
  0
VERTEX
  5
447
  8
Layer_0
  10
632.50897
  20
750.90002
  42
0.31589846
  0
VERTEX
  5
448
  8
Layer_0
  10
632.34937
  20
750.97504
  42
0.31538801
  0
VERTEX
  5
449
  8
Layer_0
  10
632.22498
  20
750.85065
  42
0.31532656
  0
VERTEX
  5
44a
  8
Layer_0
  10
632.29932
  20
750.69122
  0
VERTEX
  5
44b
  8
Layer_0
  10
632.29999
  20
748.81
  42
0.3401628
  0
VERTEX
  5
44c
  8
Layer_0
  10
632.22787
  20
748.63733
  42
0.33956698
  0
VERTEX
  5
44d
  8
Layer_0
  10
632.37598
  20
748.52368
  42
0.26797536
  0
VERTEX
  5
44e
  8
Layer_0
  10
632.50876
  20
748.60034
  0
VERTEX
  5
44f
  8
Layer_0
  10
633.29999
  20
748.60004
  0
VERTEX
  5
450
  8
Layer_0
  10
633.29999
  20
736
  0
VERTEX
  5
451
  8
Layer_0
  10
632.09998
  20
736
  0
VERTEX
  5
452
  8
Layer_0
  10
632.09998
  20
733
  0
VERTEX
  5
453
  8
Layer_0
  10
621.89999
  20
733
  0
VERTEX
  5
454
  8
Layer_0
  10
621.89999
  20
736
  0
VERTEX
  5
455
  8
Layer_0
  10
380.09998
  20
736
  0
VERTEX
  5
456
  8
Layer_0
  10
380.09998
  20
733
  0
VERTEX
  5
457
  8
Layer_0
  10
369.89996
  20
733
  0
VERTEX
  5
458
  8
Layer_0
  10
369.89996
  20
736
  0
VERTEX
  5
459
  8
Layer_0
  10
368.69995
  20
736
  0
VERTEX
  5
45a
  8
Layer_0
  10
368.69995
  20
748.60004
  0
VERTEX
  5
45b
  8
Layer_0
  10
369.48999
  20
748.60004
  42
0.26619031
  0
VERTEX
  5
45c
  8
Layer_0
  10
369.62299
  20
748.52368
  42
0.33950779
  0
VERTEX
  5
45d
  8
Layer_0
  10
369.77112
  20
748.63733
  42
0.33942693
  0
VERTEX
  5
45e
  8
Layer_0
  10
369.69965
  20
748.80981
  0
VERTEX
  5
45f
  8
Layer_0
  10
369.69995
  20
750.69098
  42
0.31373855
  0
VERTEX
  5
460
  8
Layer_0
  10
369.77399
  20
750.85065
  42
0.31542955
  0
VERTEX
  5
461
  8
Layer_0
  10
369.6496
  20
750.97504
  42
0.31520711
  0
VERTEX
  5
462
  8
Layer_0
  10
369.49017
  20
750.9007
  0
VERTEX
  5
463
  8
Layer_0
  10
368.69995
  20
750.90002
  0
VERTEX
  5
464
  8
Layer_0
  10
368.69934
  20
753.49072
  0
SEQEND
  0
POLYLINE
  5
466
  8
Layer_0
  62
0
  66
1
  10
0
  20
0
  30
0
  0
VERTEX
  5
466
  8
Layer_0
  10
765.90002
  20
809.24197
  0
VERTEX
  5
467
  8
Layer_0
  10
765.90002
  20
811.99997
  0
VERTEX
  5
468
  8
Layer_0
  10
765.95001
  20
811.99997
  0
VERTEX
  5
469
  8
Layer_0
  10
765.95001
  20
809.20197
  42
0.066483942
  0
VERTEX
  5
46a
  8
Layer_0
  10
765.90002
  20
809.24197
  0
SEQEND
  0
POLYLINE
  5
46c
  8
Layer_0
  62
0
  66
1
  10
0
  20
0
  30
0
  0
VERTEX
  5
46c
  8
Layer_0
  10
236.09961
  20
809.242
  0
VERTEX
  5
46d
  8
Layer_0
  10
236.09961
  20
812
  0
VERTEX
  5
46e
  8
Layer_0
  10
236.04956
  20
812
  0
VERTEX
  5
46f
  8
Layer_0
  10
236.04956
  20
809.202
  42
-0.072267079
  0
VERTEX
  5
470
  8
Layer_0
  10
236.09961
  20
809.242
  0
SEQEND
  0
POLYLINE
  5
472
  8
Layer_0
  62
0
  66
1
  10
0
  20
0
  30
0
  0
VERTEX
  5
472
  8
Layer_0
  10
368.69934
  20
658.49072
  42
0.31541911
  0
VERTEX
  5
473
  8
Layer_0
  10
368.8092
  20
658.72638
  42
0.31531913
  0
VERTEX
  5
474
  8
Layer_0
  10
368.62537
  20
658.91022
  42
0.31653575
  0
VERTEX
  5
475
  8
Layer_0
  10
368.39001
  20
658.79999
  0
VERTEX
  5
476
  8
Layer_0
  10
365.60925
  20
658.80035
  42
0.31524705
  0
VERTEX
  5
477
  8
Layer_0
  10
365.3736
  20
658.91022
  42
0.31531913
  0
VERTEX
  5
478
  8
Layer_0
  10
365.18976
  20
658.72638
  42
0.31666424
  0
VERTEX
  5
479
  8
Layer_0
  10
365.29999
  20
658.49103
  0
VERTEX
  5
47a
  8
Layer_0
  10
365.29999
  20
655.90002
  0
VERTEX
  5
47b
  8
Layer_0
  10
364.50879
  20
655.9007
  42
0.31520712
  0
VERTEX
  5
47c
  8
Layer_0
  10
364.34937
  20
655.97504
  42
0.31542955
  0
VERTEX
  5
47d
  8
Layer_0
  10
364.22498
  20
655.85065
  42
0.31588295
  0
VERTEX
  5
47e
  8
Layer_0
  10
364.29999
  20
655.69098
  0
VERTEX
  5
47f
  8
Layer_0
  10
364.29932
  20
653.80981
  42
0.33942693
  0
VERTEX
  5
480
  8
Layer_0
  10
364.22791
  20
653.63733
  42
0.33950779
  0
VERTEX
  5
481
  8
Layer_0
  10
364.37598
  20
653.52368
  42
0.26619031
  0
VERTEX
  5
482
  8
Layer_0
  10
364.50897
  20
653.60004
  0
VERTEX
  5
483
  8
Layer_0
  10
365.29999
  20
653.60004
  0
VERTEX
  5
484
  8
Layer_0
  10
365.29999
  20
641
  0
VERTEX
  5
485
  8
Layer_0
  10
364.09998
  20
641
  0
VERTEX
  5
486
  8
Layer_0
  10
364.09998
  20
638
  0
VERTEX
  5
487
  8
Layer_0
  10
353.89996
  20
638
  0
VERTEX
  5
488
  8
Layer_0
  10
353.89996
  20
641
  0
VERTEX
  5
489
  8
Layer_0
  10
236.04956
  20
641
  0
VERTEX
  5
48a
  8
Layer_0
  10
236.04956
  20
655.80927
  42
0.31526032
  0
VERTEX
  5
48b
  8
Layer_0
  10
236.15295
  20
656.03107
  42
0.31533127
  0
VERTEX
  5
48c
  8
Layer_0
  10
235.97992
  20
656.2041
  42
0.31637598
  0
VERTEX
  5
48d
  8
Layer_0
  10
235.75818
  20
656.10004
  0
VERTEX
  5
48e
  8
Layer_0
  10
232.99957
  20
656.10004
  0
VERTEX
  5
48f
  8
Layer_0
  10
232.99957
  20
671.5
  0
VERTEX
  5
490
  8
Layer_0
  10
235.75812
  20
671.50031
  42
0.31521162
  0
VERTEX
  5
491
  8
Layer_0
  10
235.97992
  20
671.39691
  42
0.31533127
  0
VERTEX
  5
492
  8
Layer_0
  10
236.15295
  20
671.56995
  42
0.31456075
  0
VERTEX
  5
493
  8
Layer_0
  10
236.04956
  20
671.79199
  0
VERTEX
  5
494
  8
Layer_0
  10
236.04956
  20
686.20923
  42
0.31526032
  0
VERTEX
  5
495
  8
Layer_0
  10
236.15295
  20
686.43103
  42
0.31533127
  0
VERTEX
  5
496
  8
Layer_0
  10
235.97992
  20
686.60406
  42
0.31637598
  0
VERTEX
  5
497
  8
Layer_0
  10
235.75818
  20
686.5
  0
VERTEX
  5
498
  8
Layer_0
  10
232.99957
  20
686.5
  0
VERTEX
  5
499
  8
Layer_0
  10
232.99957
  20
701.90002
  0
VERTEX
  5
49a
  8
Layer_0
  10
235.75812
  20
701.90033
  42
0.31521162
  0
VERTEX
  5
49b
  8
Layer_0
  10
235.97992
  20
701.79694
  42
0.31533127
  0
VERTEX
  5
49c
  8
Layer_0
  10
236.15295
  20
701.96997
  42
0.31456075
  0
VERTEX
  5
49d
  8
Layer_0
  10
236.04956
  20
702.19202
  0
VERTEX
  5
49e
  8
Layer_0
  10
236.0495
  20
713.9122
  42
0.23837005
  0
VERTEX
  5
49f
  8
Layer_0
  10
236.22986
  20
713.845
  42
0.23760058
  0
VERTEX
  5
4a0
  8
Layer_0
  10
236.39099
  20
713.95001
  0
VERTEX
  5
4a1
  8
Layer_0
  10
341.60828
  20
713.95035
  42
0.3153444
  0
VERTEX
  5
4a2
  8
Layer_0
  10
341.83008
  20
713.84692
  42
0.31530621
  0
VERTEX
  5
4a3
  8
Layer_0
  10
342.00311
  20
714.01996
  42
0.3141603
  0
VERTEX
  5
4a4
  8
Layer_0
  10
341.90002
  20
714.242
  0
VERTEX
  5
4a5
  8
Layer_0
  10
341.90002
  20
717
  0
VERTEX
  5
4a6
  8
Layer_0
  10
448.09998
  20
717
  0
VERTEX
  5
4a7
  8
Layer_0
  10
448.09933
  20
714.24176
  42
0.3153243
  0
VERTEX
  5
4a8
  8
Layer_0
  10
447.99591
  20
714.01996
  42
0.31530621
  0
VERTEX
  5
4a9
  8
Layer_0
  10
448.16895
  20
713.84692
  42
0.31418019
  0
VERTEX
  5
4aa
  8
Layer_0
  10
448.39099
  20
713.95001
  0
VERTEX
  5
4ab
  8
Layer_0
  10
553.60822
  20
713.95032
  42
0.31539303
  0
VERTEX
  5
4ac
  8
Layer_0
  10
553.83002
  20
713.84689
  42
0.31535227
  0
VERTEX
  5
4ad
  8
Layer_0
  10
554.00305
  20
714.01993
  42
0.31418159
  0
VERTEX
  5
4ae
  8
Layer_0
  10
553.89999
  20
714.24197
  0
VERTEX
  5
4af
  8
Layer_0
  10
553.89999
  20
716.99997
  0
VERTEX
  5
4b0
  8
Layer_0
  10
660.09998
  20
716.99997
  0
VERTEX
  5
4b1
  8
Layer_0
  10
660.09933
  20
714.24173
  42
0.31539303
  0
VERTEX
  5
4b2
  8
Layer_0
  10
659.99591
  20
714.01993
  42
0.31535227
  0
VERTEX
  5
4b3
  8
Layer_0
  10
660.16895
  20
713.84689
  42
0.31422877
  0
VERTEX
  5
4b4
  8
Layer_0
  10
660.39099
  20
713.94998
  0
VERTEX
  5
4b5
  8
Layer_0
  10
765.60828
  20
713.95032
  42
0.23851526
  0
VERTEX
  5
4b6
  8
Layer_0
  10
765.76935
  20
713.84497
  42
0.23700157
  0
VERTEX
  5
4b7
  8
Layer_0
  10
765.95001
  20
713.91199
  0
VERTEX
  5
4b8
  8
Layer_0
  10
765.95001
  20
702.19202
  42
0.2684036
  0
VERTEX
  5
4b9
  8
Layer_0
  10
765.84271
  20
702.00702
  42
0.33952685
  0
VERTEX
  5
4ba
  8
Layer_0
  10
766.00079
  20
701.80096
  42
0.33954731
  0
VERTEX
  5
4bb
  8
Layer_0
  10
766.24078
  20
701.90033
  0
VERTEX
  5
4bc
  8
Layer_0
  10
769
  20
701.90002
  0
VERTEX
  5
4bd
  8
Layer_0
  10
769
  20
686.5
  0
VERTEX
  5
4be
  8
Layer_0
  10
766.24103
  20
686.5
  42
0.33990362
  0
VERTEX
  5
4bf
  8
Layer_0
  10
766.00079
  20
686.60004
  42
0.33952685
  0
VERTEX
  5
4c0
  8
Layer_0
  10
765.84271
  20
686.39398
  42
0.26797069
  0
VERTEX
  5
4c1
  8
Layer_0
  10
765.94934
  20
686.20923
  0
VERTEX
  5
4c2
  8
Layer_0
  10
765.95001
  20
671.79199
  42
0.2684036
  0
VERTEX
  5
4c3
  8
Layer_0
  10
765.84271
  20
671.60699
  42
0.33952685
  0
VERTEX
  5
4c4
  8
Layer_0
  10
766.00079
  20
671.40094
  42
0.33954731
  0
VERTEX
  5
4c5
  8
Layer_0
  10
766.24078
  20
671.50031
  0
VERTEX
  5
4c6
  8
Layer_0
  10
769
  20
671.5
  0
VERTEX
  5
4c7
  8
Layer_0
  10
769
  20
656.10004
  0
VERTEX
  5
4c8
  8
Layer_0
  10
766.24103
  20
656.10004
  42
0.33990362
  0
VERTEX
  5
4c9
  8
Layer_0
  10
766.00079
  20
656.20007
  42
0.33952685
  0
VERTEX
  5
4ca
  8
Layer_0
  10
765.84271
  20
655.99402
  42
0.26797069
  0
VERTEX
  5
4cb
  8
Layer_0
  10
765.94934
  20
655.80927
  0
VERTEX
  5
4cc
  8
Layer_0
  10
765.95001
  20
641
  0
VERTEX
  5
4cd
  8
Layer_0
  10
648.09998
  20
641
  0
VERTEX
  5
4ce
  8
Layer_0
  10
648.09998
  20
638
  0
VERTEX
  5
4cf
  8
Layer_0
  10
637.89999
  20
638
  0
VERTEX
  5
4d0
  8
Layer_0
  10
637.89999
  20
641
  0
VERTEX
  5
4d1
  8
Layer_0
  10
636.69998
  20
641
  0
VERTEX
  5
4d2
  8
Layer_0
  10
636.69998
  20
653.60004
  0
VERTEX
  5
4d3
  8
Layer_0
  10
637.48999
  20
653.60004
  42
0.2663194
  0
VERTEX
  5
4d4
  8
Layer_0
  10
637.62299
  20
653.52368
  42
0.33956698
  0
VERTEX
  5
4d5
  8
Layer_0
  10
637.77109
  20
653.63733
  42
0.33945758
  0
VERTEX
  5
4d6
  8
Layer_0
  10
637.69965
  20
653.80981
  0
VERTEX
  5
4d7
  8
Layer_0
  10
637.69998
  20
655.69098
  42
0.31370563
  0
VERTEX
  5
4d8
  8
Layer_0
  10
637.77399
  20
655.85065
  42
0.31538801
  0
VERTEX
  5
4d9
  8
Layer_0
  10
637.6496
  20
655.97504
  42
0.31526344
  0
VERTEX
  5
4da
  8
Layer_0
  10
637.4902
  20
655.9007
  0
VERTEX
  5
4db
  8
Layer_0
  10
636.69998
  20
655.90002
  0
VERTEX
  5
4dc
  8
Layer_0
  10
636.69998
  20
658.49103
  42
0.31514687
  0
VERTEX
  5
4dd
  8
Layer_0
  10
636.8092
  20
658.72638
  42
0.31523242
  0
VERTEX
  5
4de
  8
Layer_0
  10
636.62534
  20
658.91022
  42
0.3152928
  0
VERTEX
  5
4df
  8
Layer_0
  10
636.38968
  20
658.80035
  0
VERTEX
  5
4e0
  8
Layer_0
  10
633.60898
  20
658.79999
  42
0.31658158
  0
VERTEX
  5
4e1
  8
Layer_0
  10
633.37363
  20
658.91022
  42
0.31523242
  0
VERTEX
  5
4e2
  8
Layer_0
  10
633.18976
  20
658.72638
  42
0.31535378
  0
VERTEX
  5
4e3
  8
Layer_0
  10
633.29965
  20
658.49072
  0
VERTEX
  5
4e4
  8
Layer_0
  10
633.29999
  20
655.90002
  0
VERTEX
  5
4e5
  8
Layer_0
  10
632.50897
  20
655.90002
  42
0.31589846
  0
VERTEX
  5
4e6
  8
Layer_0
  10
632.34937
  20
655.97504
  42
0.31538801
  0
VERTEX
  5
4e7
  8
Layer_0
  10
632.22498
  20
655.85065
  42
0.31532656
  0
VERTEX
  5
4e8
  8
Layer_0
  10
632.29932
  20
655.69122
  0
VERTEX
  5
4e9
  8
Layer_0
  10
632.29999
  20
653.81
  42
0.3401628
  0
VERTEX
  5
4ea
  8
Layer_0
  10
632.22787
  20
653.63733
  42
0.33956698
  0
VERTEX
  5
4eb
  8
Layer_0
  10
632.37598
  20
653.52368
  42
0.26797536
  0
VERTEX
  5
4ec
  8
Layer_0
  10
632.50876
  20
653.60034
  0
VERTEX
  5
4ed
  8
Layer_0
  10
633.29999
  20
653.60004
  0
VERTEX
  5
4ee
  8
Layer_0
  10
633.29999
  20
641
  0
VERTEX
  5
4ef
  8
Layer_0
  10
632.09998
  20
641
  0
VERTEX
  5
4f0
  8
Layer_0
  10
632.09998
  20
638
  0
VERTEX
  5
4f1
  8
Layer_0
  10
621.89999
  20
638
  0
VERTEX
  5
4f2
  8
Layer_0
  10
621.89999
  20
641
  0
VERTEX
  5
4f3
  8
Layer_0
  10
380.09998
  20
641
  0
VERTEX
  5
4f4
  8
Layer_0
  10
380.09998
  20
638
  0
VERTEX
  5
4f5
  8
Layer_0
  10
369.89996
  20
638
  0
VERTEX
  5
4f6
  8
Layer_0
  10
369.89996
  20
641
  0
VERTEX
  5
4f7
  8
Layer_0
  10
368.69995
  20
641
  0
VERTEX
  5
4f8
  8
Layer_0
  10
368.69995
  20
653.60004
  0
VERTEX
  5
4f9
  8
Layer_0
  10
369.48999
  20
653.60004
  42
0.26619031
  0
VERTEX
  5
4fa
  8
Layer_0
  10
369.62299
  20
653.52368
  42
0.33950779
  0
VERTEX
  5
4fb
  8
Layer_0
  10
369.77112
  20
653.63733
  42
0.33942693
  0
VERTEX
  5
4fc
  8
Layer_0
  10
369.69965
  20
653.80981
  0
VERTEX
  5
4fd
  8
Layer_0
  10
369.69995
  20
655.69098
  42
0.31373855
  0
VERTEX
  5
4fe
  8
Layer_0
  10
369.77399
  20
655.85065
  42
0.31542955
  0
VERTEX
  5
4ff
  8
Layer_0
  10
369.6496
  20
655.97504
  42
0.31520712
  0
VERTEX
  5
500
  8
Layer_0
  10
369.49017
  20
655.9007
  0
VERTEX
  5
501
  8
Layer_0
  10
368.69995
  20
655.90002
  0
VERTEX
  5
502
  8
Layer_0
  10
368.69934
  20
658.49072
  0
SEQEND
  0
POLYLINE
  5
504
  8
Layer_0
  62
0
  66
1
  10
0
  20
0
  30
0
  0
VERTEX
  5
504
  8
Layer_0
  10
765.90002
  20
714.24197
  0
VERTEX
  5
505
  8
Layer_0
  10
765.90002
  20
716.99997
  0
VERTEX
  5
506
  8
Layer_0
  10
765.95001
  20
716.99997
  0
VERTEX
  5
507
  8
Layer_0
  10
765.95001
  20
714.20197
  42
0.066483942
  0
VERTEX
  5
508
  8
Layer_0
  10
765.90002
  20
714.24197
  0
SEQEND
  0
POLYLINE
  5
50a
  8
Layer_0
  62
0
  66
1
  10
0
  20
0
  30
0
  0
VERTEX
  5
50a
  8
Layer_0
  10
236.09961
  20
714.242
  0
VERTEX
  5
50b
  8
Layer_0
  10
236.09961
  20
717
  0
VERTEX
  5
50c
  8
Layer_0
  10
236.04956
  20
717
  0
VERTEX
  5
50d
  8
Layer_0
  10
236.04956
  20
714.202
  42
-0.072267078
  0
VERTEX
  5
50e
  8
Layer_0
  10
236.09961
  20
714.242
  0
SEQEND
  0
POLYLINE
  5
510
  8
Layer_0
  62
0
  66
1
  10
0
  20
0
  30
0
  0
VERTEX
  5
510
  8
Layer_0
  10
286.13
  20
760.03799
  0
VERTEX
  5
511
  8
Layer_0
  10
286.13
  20
747.03799
  0
VERTEX
  5
512
  8
Layer_0
  10
266.93005
  20
747.03799
  0
VERTEX
  5
513
  8
Layer_0
  10
266.93005
  20
760.03799
  0
VERTEX
  5
514
  8
Layer_0
  10
286.13
  20
760.03799
  0
SEQEND
  0
POLYLINE
  5
516
  8
Layer_0
  62
0
  66
1
  10
0
  20
0
  30
0
  0
VERTEX
  5
516
  8
Layer_0
  10
281.28003
  20
658.038
  0
VERTEX
  5
517
  8
Layer_0
  10
281.28003
  20
649.038
  0
VERTEX
  5
518
  8
Layer_0
  10
269.78003
  20
649.038
  0
VERTEX
  5
519
  8
Layer_0
  10
269.78003
  20
658.038
  0
VERTEX
  5
51a
  8
Layer_0
  10
281.28003
  20
658.038
  0
SEQEND
  0
POLYLINE
  5
51c
  8
Layer_0
  62
0
  66
1
  10
0
  20
0
  30
0
  0
VERTEX
  5
51c
  8
Layer_0
  10
496
  20
658.5
  0
VERTEX
  5
51d
  8
Layer_0
  10
508
  20
658.5
  0
VERTEX
  5
51e
  8
Layer_0
  10
508
  20
646.5
  0
VERTEX
  5
51f
  8
Layer_0
  10
496
  20
646.5
  0
VERTEX
  5
520
  8
Layer_0
  10
496
  20
658.5
  0
SEQEND
  0
ENDSEC
  0
EOF
