  0
SECTION
  2
HEADER
  9
$ACADVER
  1
AC1009
  0
ENDSEC
  0
SECTION
  2
ENTITIES
  0
CIRCLE
  5
90
  8
Layer_0
  62
0
  10
470.81299
  20
275.70099
  30
0
  40
1.75
  0
CIRCLE
  5
90
  8
Layer_0
  62
0
  10
470.81299
  20
298.70099
  30
0
  40
1.75
  0
CIRCLE
  5
90
  8
Layer_0
  62
0
  10
479.31299
  20
311.70099
  30
0
  40
1.5
  0
CIRCLE
  5
90
  8
Layer_0
  62
0
  10
479.31299
  20
329.70099
  30
0
  40
1.5
  0
CIRCLE
  5
90
  8
Layer_0
  62
0
  10
470.81299
  20
320.70099
  30
0
  40
5.75
  0
CIRCLE
  5
90
  8
Layer_0
  62
0
  10
436.18701
  20
276.298
  30
0
  40
1.75
  0
CIRCLE
  5
90
  8
Layer_0
  62
0
  10
436.18701
  20
299.298
  30
0
  40
1.75
  0
CIRCLE
  5
90
  8
Layer_0
  62
0
  10
444.68701
  20
312.298
  30
0
  40
1.5
  0
CIRCLE
  5
90
  8
Layer_0
  62
0
  10
444.68701
  20
330.298
  30
0
  40
1.5
  0
CIRCLE
  5
90
  8
Layer_0
  62
0
  10
436.18701
  20
321.298
  30
0
  40
5.75
  0
CIRCLE
  5
90
  8
Layer_0
  62
0
  10
424.88699
  20
321.298
  30
0
  40
2.25
  0
POLYLINE
  5
90
  8
Layer_0
  62
0
  66
1
  10
0
  20
0
  30
0
  0
VERTEX
  5
90
  8
Layer_0
  10
484.81302
  20
263.70099
  0
VERTEX
  5
91
  8
Layer_0
  10
459.81302
  20
263.70099
  0
VERTEX
  5
92
  8
Layer_0
  10
459.81302
  20
297.70099
  0
VERTEX
  5
93
  8
Layer_0
  10
462.81302
  20
297.70099
  0
VERTEX
  5
94
  8
Layer_0
  10
462.81302
  20
335.70099
  0
VERTEX
  5
95
  8
Layer_0
  10
484.81302
  20
335.70099
  0
VERTEX
  5
96
  8
Layer_0
  10
484.81302
  20
263.70099
  0
SEQEND
  0
POLYLINE
  5
98
  8
Layer_0
  62
0
  66
1
  10
0
  20
0
  30
0
  0
VERTEX
  5
98
  8
Layer_0
  10
450.18622
  20
336.298
  0
VERTEX
  5
99
  8
Layer_0
  10
450.18622
  20
264.298
  0
VERTEX
  5
9a
  8
Layer_0
  10
425.18622
  20
264.298
  0
VERTEX
  5
9b
  8
Layer_0
  10
425.18622
  20
298.298
  0
VERTEX
  5
9c
  8
Layer_0
  10
415.18622
  20
306.298
  0
VERTEX
  5
9d
  8
Layer_0
  10
415.18622
  20
336.298
  0
VERTEX
  5
9e
  8
Layer_0
  10
450.18622
  20
336.298
  0
SEQEND
  0
CIRCLE
  5
a0
  8
Layer_0
  62
0
  10
399.18701
  20
324.298
  30
0
  40
1.75
  0
CIRCLE
  5
a0
  8
Layer_0
  62
0
  10
399.18701
  20
301.298
  30
0
  40
1.75
  0
CIRCLE
  5
a0
  8
Layer_0
  62
0
  10
390.68701
  20
288.298
  30
0
  40
1.5
  0
CIRCLE
  5
a0
  8
Layer_0
  62
0
  10
390.68701
  20
270.298
  30
0
  40
1.5
  0
CIRCLE
  5
a0
  8
Layer_0
  62
0
  10
399.18701
  20
279.298
  30
0
  40
5.75
  0
CIRCLE
  5
a0
  8
Layer_0
  62
0
  10
410.487
  20
279.298
  30
0
  40
2.25
  0
POLYLINE
  5
a0
  8
Layer_0
  62
0
  66
1
  10
0
  20
0
  30
0
  0
VERTEX
  5
a0
  8
Layer_0
  10
385.18677
  20
264.29803
  0
VERTEX
  5
a1
  8
Layer_0
  10
385.18677
  20
336.298
  0
VERTEX
  5
a2
  8
Layer_0
  10
410.1868
  20
336.298
  0
VERTEX
  5
a3
  8
Layer_0
  10
410.1868
  20
302.298
  0
VERTEX
  5
a4
  8
Layer_0
  10
420.1868
  20
294.298
  0
VERTEX
  5
a5
  8
Layer_0
  10
420.18677
  20
264.298
  0
VERTEX
  5
a6
  8
Layer_0
  10
385.18677
  20
264.29803
  0
SEQEND
  0
CIRCLE
  5
a8
  8
Layer_0
  62
0
  10
366.18701
  20
276.298
  30
0
  40
1.75
  0
CIRCLE
  5
a8
  8
Layer_0
  62
0
  10
366.18701
  20
299.298
  30
0
  40
1.75
  0
CIRCLE
  5
a8
  8
Layer_0
  62
0
  10
374.68701
  20
312.298
  30
0
  40
1.5
  0
CIRCLE
  5
a8
  8
Layer_0
  62
0
  10
374.68701
  20
330.298
  30
0
  40
1.5
  0
CIRCLE
  5
a8
  8
Layer_0
  62
0
  10
366.18701
  20
321.298
  30
0
  40
5.75
  0
CIRCLE
  5
a8
  8
Layer_0
  62
0
  10
354.88702
  20
321.298
  30
0
  40
2.25
  0
POLYLINE
  5
a8
  8
Layer_0
  62
0
  66
1
  10
0
  20
0
  30
0
  0
VERTEX
  5
a8
  8
Layer_0
  10
380.18622
  20
336.298
  0
VERTEX
  5
a9
  8
Layer_0
  10
380.18622
  20
264.298
  0
VERTEX
  5
aa
  8
Layer_0
  10
355.18622
  20
264.298
  0
VERTEX
  5
ab
  8
Layer_0
  10
355.18622
  20
298.298
  0
VERTEX
  5
ac
  8
Layer_0
  10
345.18622
  20
306.298
  0
VERTEX
  5
ad
  8
Layer_0
  10
345.18622
  20
336.298
  0
VERTEX
  5
ae
  8
Layer_0
  10
380.18622
  20
336.298
  0
SEQEND
  0
CIRCLE
  5
b0
  8
Layer_0
  62
0
  10
329.18701
  20
324.298
  30
0
  40
1.75
  0
CIRCLE
  5
b0
  8
Layer_0
  62
0
  10
329.18701
  20
301.298
  30
0
  40
1.75
  0
CIRCLE
  5
b0
  8
Layer_0
  62
0
  10
320.68701
  20
288.298
  30
0
  40
1.5
  0
CIRCLE
  5
b0
  8
Layer_0
  62
0
  10
320.68701
  20
270.298
  30
0
  40
1.5
  0
CIRCLE
  5
b0
  8
Layer_0
  62
0
  10
329.18701
  20
279.298
  30
0
  40
5.75
  0
CIRCLE
  5
b0
  8
Layer_0
  62
0
  10
340.487
  20
279.298
  30
0
  40
2.25
  0
POLYLINE
  5
b0
  8
Layer_0
  62
0
  66
1
  10
0
  20
0
  30
0
  0
VERTEX
  5
b0
  8
Layer_0
  10
315.18677
  20
264.29803
  0
VERTEX
  5
b1
  8
Layer_0
  10
315.18677
  20
336.298
  0
VERTEX
  5
b2
  8
Layer_0
  10
340.18677
  20
336.298
  0
VERTEX
  5
b3
  8
Layer_0
  10
340.18677
  20
302.298
  0
VERTEX
  5
b4
  8
Layer_0
  10
350.18677
  20
294.298
  0
VERTEX
  5
b5
  8
Layer_0
  10
350.18677
  20
264.298
  0
VERTEX
  5
b6
  8
Layer_0
  10
315.18677
  20
264.29803
  0
SEQEND
  0
CIRCLE
  5
b8
  8
Layer_0
  62
0
  10
366.18701
  20
351.298
  30
0
  40
1.75
  0
CIRCLE
  5
b8
  8
Layer_0
  62
0
  10
366.18701
  20
374.298
  30
0
  40
1.75
  0
CIRCLE
  5
b8
  8
Layer_0
  62
0
  10
374.68701
  20
387.298
  30
0
  40
1.5
  0
CIRCLE
  5
b8
  8
Layer_0
  62
0
  10
374.68701
  20
405.298
  30
0
  40
1.5
  0
CIRCLE
  5
b8
  8
Layer_0
  62
0
  10
366.18701
  20
396.298
  30
0
  40
5.75
  0
CIRCLE
  5
b8
  8
Layer_0
  62
0
  10
354.88702
  20
396.298
  30
0
  40
2.25
  0
POLYLINE
  5
b8
  8
Layer_0
  62
0
  66
1
  10
0
  20
0
  30
0
  0
VERTEX
  5
b8
  8
Layer_0
  10
380.18622
  20
411.298
  0
VERTEX
  5
b9
  8
Layer_0
  10
380.18622
  20
339.298
  0
VERTEX
  5
ba
  8
Layer_0
  10
355.18622
  20
339.298
  0
VERTEX
  5
bb
  8
Layer_0
  10
355.18622
  20
373.298
  0
VERTEX
  5
bc
  8
Layer_0
  10
345.18622
  20
381.298
  0
VERTEX
  5
bd
  8
Layer_0
  10
345.18622
  20
411.298
  0
VERTEX
  5
be
  8
Layer_0
  10
380.18622
  20
411.298
  0
SEQEND
  0
CIRCLE
  5
c0
  8
Layer_0
  62
0
  10
329.18701
  20
399.298
  30
0
  40
1.75
  0
CIRCLE
  5
c0
  8
Layer_0
  62
0
  10
329.18701
  20
376.298
  30
0
  40
1.75
  0
CIRCLE
  5
c0
  8
Layer_0
  62
0
  10
320.68701
  20
363.298
  30
0
  40
1.5
  0
CIRCLE
  5
c0
  8
Layer_0
  62
0
  10
320.68701
  20
345.298
  30
0
  40
1.5
  0
CIRCLE
  5
c0
  8
Layer_0
  62
0
  10
329.18701
  20
354.298
  30
0
  40
5.75
  0
CIRCLE
  5
c0
  8
Layer_0
  62
0
  10
340.487
  20
354.298
  30
0
  40
2.25
  0
POLYLINE
  5
c0
  8
Layer_0
  62
0
  66
1
  10
0
  20
0
  30
0
  0
VERTEX
  5
c0
  8
Layer_0
  10
315.18677
  20
339.29852
  0
VERTEX
  5
c1
  8
Layer_0
  10
315.18677
  20
411.29851
  0
VERTEX
  5
c2
  8
Layer_0
  10
340.18677
  20
411.29851
  0
VERTEX
  5
c3
  8
Layer_0
  10
340.18677
  20
377.29849
  0
VERTEX
  5
c4
  8
Layer_0
  10
350.18677
  20
369.29849
  0
VERTEX
  5
c5
  8
Layer_0
  10
350.18677
  20
339.29849
  0
VERTEX
  5
c6
  8
Layer_0
  10
315.18677
  20
339.29852
  0
SEQEND
  0
CIRCLE
  5
c8
  8
Layer_0
  62
0
  10
436.18701
  20
351.298
  30
0
  40
1.75
  0
CIRCLE
  5
c8
  8
Layer_0
  62
0
  10
436.18701
  20
374.298
  30
0
  40
1.75
  0
CIRCLE
  5
c8
  8
Layer_0
  62
0
  10
444.68701
  20
387.298
  30
0
  40
1.5
  0
CIRCLE
  5
c8
  8
Layer_0
  62
0
  10
444.68701
  20
405.298
  30
0
  40
1.5
  0
CIRCLE
  5
c8
  8
Layer_0
  62
0
  10
436.18701
  20
396.298
  30
0
  40
5.75
  0
CIRCLE
  5
c8
  8
Layer_0
  62
0
  10
424.88699
  20
396.298
  30
0
  40
2.25
  0
POLYLINE
  5
c8
  8
Layer_0
  62
0
  66
1
  10
0
  20
0
  30
0
  0
VERTEX
  5
c8
  8
Layer_0
  10
450.18622
  20
411.298
  0
VERTEX
  5
c9
  8
Layer_0
  10
450.18622
  20
339.298
  0
VERTEX
  5
ca
  8
Layer_0
  10
425.18622
  20
339.298
  0
VERTEX
  5
cb
  8
Layer_0
  10
425.18622
  20
373.298
  0
VERTEX
  5
cc
  8
Layer_0
  10
415.18622
  20
381.298
  0
VERTEX
  5
cd
  8
Layer_0
  10
415.18622
  20
411.298
  0
VERTEX
  5
ce
  8
Layer_0
  10
450.18622
  20
411.298
  0
SEQEND
  0
CIRCLE
  5
d0
  8
Layer_0
  62
0
  10
399.18701
  20
399.298
  30
0
  40
1.75
  0
CIRCLE
  5
d0
  8
Layer_0
  62
0
  10
399.18701
  20
376.298
  30
0
  40
1.75
  0
CIRCLE
  5
d0
  8
Layer_0
  62
0
  10
390.68701
  20
363.298
  30
0
  40
1.5
  0
CIRCLE
  5
d0
  8
Layer_0
  62
0
  10
390.68701
  20
345.298
  30
0
  40
1.5
  0
CIRCLE
  5
d0
  8
Layer_0
  62
0
  10
399.18701
  20
354.298
  30
0
  40
5.75
  0
CIRCLE
  5
d0
  8
Layer_0
  62
0
  10
410.487
  20
354.298
  30
0
  40
2.25
  0
POLYLINE
  5
d0
  8
Layer_0
  62
0
  66
1
  10
0
  20
0
  30
0
  0
VERTEX
  5
d0
  8
Layer_0
  10
385.18677
  20
339.29852
  0
VERTEX
  5
d1
  8
Layer_0
  10
385.18677
  20
411.29851
  0
VERTEX
  5
d2
  8
Layer_0
  10
410.1868
  20
411.29851
  0
VERTEX
  5
d3
  8
Layer_0
  10
410.1868
  20
377.29849
  0
VERTEX
  5
d4
  8
Layer_0
  10
420.1868
  20
369.29849
  0
VERTEX
  5
d5
  8
Layer_0
  10
420.18677
  20
339.29849
  0
VERTEX
  5
d6
  8
Layer_0
  10
385.18677
  20
339.29852
  0
SEQEND
  0
CIRCLE
  5
d8
  8
Layer_0
  62
0
  10
500.81299
  20
275.70099
  30
0
  40
1.75
  0
CIRCLE
  5
d8
  8
Layer_0
  62
0
  10
500.81299
  20
298.70099
  30
0
  40
1.75
  0
CIRCLE
  5
d8
  8
Layer_0
  62
0
  10
509.31299
  20
311.70099
  30
0
  40
1.5
  0
CIRCLE
  5
d8
  8
Layer_0
  62
0
  10
509.31299
  20
329.70099
  30
0
  40
1.5
  0
CIRCLE
  5
d8
  8
Layer_0
  62
0
  10
500.81299
  20
320.70099
  30
0
  40
5.75
  0
POLYLINE
  5
d8
  8
Layer_0
  62
0
  66
1
  10
0
  20
0
  30
0
  0
VERTEX
  5
d8
  8
Layer_0
  10
514.81299
  20
263.70099
  0
VERTEX
  5
d9
  8
Layer_0
  10
489.81299
  20
263.70099
  0
VERTEX
  5
da
  8
Layer_0
  10
489.81299
  20
297.70099
  0
VERTEX
  5
db
  8
Layer_0
  10
492.81299
  20
297.70099
  0
VERTEX
  5
dc
  8
Layer_0
  10
492.81299
  20
335.70099
  0
VERTEX
  5
dd
  8
Layer_0
  10
514.81299
  20
335.70099
  0
VERTEX
  5
de
  8
Layer_0
  10
514.81299
  20
263.70099
  0
SEQEND
  0
CIRCLE
  5
e0
  8
Layer_0
  62
0
  10
470.81299
  20
350.70099
  30
0
  40
1.75
  0
CIRCLE
  5
e0
  8
Layer_0
  62
0
  10
470.81299
  20
373.70099
  30
0
  40
1.75
  0
CIRCLE
  5
e0
  8
Layer_0
  62
0
  10
479.31299
  20
386.70099
  30
0
  40
1.5
  0
CIRCLE
  5
e0
  8
Layer_0
  62
0
  10
479.31299
  20
404.70099
  30
0
  40
1.5
  0
CIRCLE
  5
e0
  8
Layer_0
  62
0
  10
470.81299
  20
395.70099
  30
0
  40
5.75
  0
POLYLINE
  5
e0
  8
Layer_0
  62
0
  66
1
  10
0
  20
0
  30
0
  0
VERTEX
  5
e0
  8
Layer_0
  10
484.81302
  20
338.70099
  0
VERTEX
  5
e1
  8
Layer_0
  10
459.81302
  20
338.70099
  0
VERTEX
  5
e2
  8
Layer_0
  10
459.81302
  20
372.701
  0
VERTEX
  5
e3
  8
Layer_0
  10
462.81302
  20
372.701
  0
VERTEX
  5
e4
  8
Layer_0
  10
462.81302
  20
410.701
  0
VERTEX
  5
e5
  8
Layer_0
  10
484.81302
  20
410.701
  0
VERTEX
  5
e6
  8
Layer_0
  10
484.81302
  20
338.70099
  0
SEQEND
  0
CIRCLE
  5
e8
  8
Layer_0
  62
0
  10
500.81299
  20
350.70099
  30
0
  40
1.75
  0
CIRCLE
  5
e8
  8
Layer_0
  62
0
  10
500.81299
  20
373.70099
  30
0
  40
1.75
  0
CIRCLE
  5
e8
  8
Layer_0
  62
0
  10
509.31299
  20
386.70099
  30
0
  40
1.5
  0
CIRCLE
  5
e8
  8
Layer_0
  62
0
  10
509.31299
  20
404.70099
  30
0
  40
1.5
  0
CIRCLE
  5
e8
  8
Layer_0
  62
0
  10
500.81299
  20
395.70099
  30
0
  40
5.75
  0
POLYLINE
  5
e8
  8
Layer_0
  62
0
  66
1
  10
0
  20
0
  30
0
  0
VERTEX
  5
e8
  8
Layer_0
  10
514.81299
  20
338.70099
  0
VERTEX
  5
e9
  8
Layer_0
  10
489.81299
  20
338.70099
  0
VERTEX
  5
ea
  8
Layer_0
  10
489.81299
  20
372.701
  0
VERTEX
  5
eb
  8
Layer_0
  10
492.81299
  20
372.701
  0
VERTEX
  5
ec
  8
Layer_0
  10
492.81299
  20
410.701
  0
VERTEX
  5
ed
  8
Layer_0
  10
514.81299
  20
410.701
  0
VERTEX
  5
ee
  8
Layer_0
  10
514.81299
  20
338.70099
  0
SEQEND
  0
ENDSEC
  0
EOF
