  0
SECTION
  2
HEADER
  9
$ACADVER
  1
AC1009
  0
ENDSEC
  0
SECTION
  2
ENTITIES
  0
POLYLINE
  5
90
  8
Layer_0
  62
0
  66
1
  10
0
  20
0
  30
0
  0
VERTEX
  5
90
  8
Layer_0
  10
565.32727
  20
202.10013
  0
VERTEX
  5
91
  8
Layer_0
  10
565.18146
  20
202.099
  42
0.044078653
  0
VERTEX
  5
92
  8
Layer_0
  10
563.85834
  20
201.98984
  42
0.11780312
  0
VERTEX
  5
93
  8
Layer_0
  10
560.36102
  20
200.35791
  42
0.16612606
  0
VERTEX
  5
94
  8
Layer_0
  10
557.68781
  20
196.14066
  42
0.052577238
  0
VERTEX
  5
95
  8
Layer_0
  10
557.58798
  20
195.13779
  42
0.020074816
  0
VERTEX
  5
96
  8
Layer_0
  10
557.60806
  20
193.5936
  42
0.075710556
  0
VERTEX
  5
97
  8
Layer_0
  10
557.90485
  20
192.28595
  42
0.054997231
  0
VERTEX
  5
98
  8
Layer_0
  10
558.88943
  20
190.34668
  42
0.070091621
  0
VERTEX
  5
99
  8
Layer_0
  10
560.37119
  20
188.79636
  0
VERTEX
  5
9a
  8
Layer_0
  10
559.42679
  20
187.97495
  0
VERTEX
  5
9b
  8
Layer_0
  10
558.78668
  20
188.70111
  42
0.0063905701
  0
VERTEX
  5
9c
  8
Layer_0
  10
557.2207
  20
190.44901
  42
0.091945461
  0
VERTEX
  5
9d
  8
Layer_0
  10
556.41
  20
191.02643
  42
0.11226257
  0
VERTEX
  5
9e
  8
Layer_0
  10
554.8374
  20
191.39285
  42
0.0076826172
  0
VERTEX
  5
9f
  8
Layer_0
  10
552.09662
  20
191.41794
  42
0.00277581
  0
VERTEX
  5
a0
  8
Layer_0
  10
542.88181
  20
191.34692
  42
0.015868093
  0
VERTEX
  5
a1
  8
Layer_0
  10
541.21313
  20
191.27936
  42
0.050409791
  0
VERTEX
  5
a2
  8
Layer_0
  10
540.44891
  20
191.15433
  42
0.12193384
  0
VERTEX
  5
a3
  8
Layer_0
  10
539.94672
  20
190.84027
  42
0.056389591
  0
VERTEX
  5
a4
  8
Layer_0
  10
539.69199
  20
190.57672
  42
0.0058803831
  0
VERTEX
  5
a5
  8
Layer_0
  10
537.81842
  20
188.18811
  42
0.0038461173
  0
VERTEX
  5
a6
  8
Layer_0
  10
530.19263
  20
178.17642
  42
0.011188225
  0
VERTEX
  5
a7
  8
Layer_0
  10
529.5665
  20
177.31262
  42
0.12063946
  0
VERTEX
  5
a8
  8
Layer_0
  10
529.1239
  20
176.04636
  42
0.10071766
  0
VERTEX
  5
a9
  8
Layer_0
  10
529.25647
  20
174.37057
  42
0.18085664
  0
VERTEX
  5
aa
  8
Layer_0
  10
530.50708
  20
172.70831
  42
0.31928621
  0
VERTEX
  5
ab
  8
Layer_0
  10
533.43753
  20
172.86734
  42
0.016668084
  0
VERTEX
  5
ac
  8
Layer_0
  10
533.98825
  20
173.53369
  42
0.0052294563
  0
VERTEX
  5
ad
  8
Layer_0
  10
537.94775
  20
178.69537
  0
VERTEX
  5
ae
  8
Layer_0
  10
542.63513
  20
184.9202
  0
VERTEX
  5
af
  8
Layer_0
  10
547.64957
  20
184.9202
  0
VERTEX
  5
b0
  8
Layer_0
  10
547.48563
  20
184.69354
  0
VERTEX
  5
b1
  8
Layer_0
  10
528.62509
  20
159.57819
  0
VERTEX
  5
b2
  8
Layer_0
  10
514.71432
  20
159.49576
  42
0.0093322459
  0
VERTEX
  5
b3
  8
Layer_0
  10
514.16705
  20
159.22705
  42
0.097624014
  0
VERTEX
  5
b4
  8
Layer_0
  10
512.93976
  20
158.18533
  42
0.12722133
  0
VERTEX
  5
b5
  8
Layer_0
  10
512.11261
  20
156.22809
  42
0.16687272
  0
VERTEX
  5
b6
  8
Layer_0
  10
512.63904
  20
153.24747
  42
0.1234666
  0
VERTEX
  5
b7
  8
Layer_0
  10
513.91891
  20
151.88269
  42
0.04006556
  0
VERTEX
  5
b8
  8
Layer_0
  10
514.33188
  20
151.63763
  42
0.075371915
  0
VERTEX
  5
b9
  8
Layer_0
  10
514.98871
  20
151.47873
  42
0.022296552
  0
VERTEX
  5
ba
  8
Layer_0
  10
516.40192
  20
151.40387
  42
0.0053503943
  0
VERTEX
  5
bb
  8
Layer_0
  10
520.31064
  20
151.38715
  0
VERTEX
  5
bc
  8
Layer_0
  10
532.18591
  20
151.42084
  42
0.0063431308
  0
VERTEX
  5
bd
  8
Layer_0
  10
533.01035
  20
151.68207
  42
0.08213224
  0
VERTEX
  5
be
  8
Layer_0
  10
534.43701
  20
152.42761
  42
0.06715502
  0
VERTEX
  5
bf
  8
Layer_0
  10
535.03015
  20
153.0162
  42
0.0046128337
  0
VERTEX
  5
c0
  8
Layer_0
  10
538.37863
  20
157.25604
  0
VERTEX
  5
c1
  8
Layer_0
  10
540.44241
  20
159.90674
  0
VERTEX
  5
c2
  8
Layer_0
  10
542.3558
  20
162.35767
  0
VERTEX
  5
c3
  8
Layer_0
  10
542.35855
  20
162.35757
  0
VERTEX
  5
c4
  8
Layer_0
  10
542.36407
  20
162.35446
  42
-0.026703633
  0
VERTEX
  5
c5
  8
Layer_0
  10
542.63519
  20
162.08649
  42
-0.0063327718
  0
VERTEX
  5
c6
  8
Layer_0
  10
545.62384
  20
158.82159
  42
-0.0039410246
  0
VERTEX
  5
c7
  8
Layer_0
  10
549.78018
  20
154.14746
  42
-0.01618458
  0
VERTEX
  5
c8
  8
Layer_0
  10
550.80038
  20
152.92261
  42
-0.074610415
  0
VERTEX
  5
c9
  8
Layer_0
  10
550.94888
  20
152.68329
  42
-0.06622948
  0
VERTEX
  5
ca
  8
Layer_0
  10
550.94794
  20
152.65402
  0
VERTEX
  5
cb
  8
Layer_0
  10
550.91275
  20
152.46249
  0
VERTEX
  5
cc
  8
Layer_0
  10
550.39911
  20
149.79413
  0
VERTEX
  5
cd
  8
Layer_0
  10
549.58615
  20
145.62579
  0
VERTEX
  5
ce
  8
Layer_0
  10
548.02747
  20
137.70099
  42
0.0087157547
  0
VERTEX
  5
cf
  8
Layer_0
  10
547.45166
  20
134.52145
  0
VERTEX
  5
d0
  8
Layer_0
  10
547.46745
  20
134.49095
  0
VERTEX
  5
d1
  8
Layer_0
  10
547.52161
  20
134.45314
  0
VERTEX
  5
d2
  8
Layer_0
  10
547.61164
  20
134.40861
  0
VERTEX
  5
d3
  8
Layer_0
  10
547.73497
  20
134.35795
  0
VERTEX
  5
d4
  8
Layer_0
  10
547.88909
  20
134.30175
  0
VERTEX
  5
d5
  8
Layer_0
  10
548.07143
  20
134.24061
  0
VERTEX
  5
d6
  8
Layer_0
  10
548.27947
  20
134.17511
  0
VERTEX
  5
d7
  8
Layer_0
  10
548.51066
  20
134.10584
  0
VERTEX
  5
d8
  8
Layer_0
  10
549.03233
  20
133.95838
  0
VERTEX
  5
d9
  8
Layer_0
  10
549.61612
  20
133.80295
  0
VERTEX
  5
da
  8
Layer_0
  10
550.24169
  20
133.64426
  0
VERTEX
  5
db
  8
Layer_0
  10
550.88873
  20
133.48705
  0
VERTEX
  5
dc
  8
Layer_0
  10
551.5369
  20
133.33604
  0
VERTEX
  5
dd
  8
Layer_0
  10
552.16588
  20
133.19595
  0
VERTEX
  5
de
  8
Layer_0
  10
552.75534
  20
133.0715
  0
VERTEX
  5
df
  8
Layer_0
  10
553.28495
  20
132.96743
  0
VERTEX
  5
e0
  8
Layer_0
  10
553.52095
  20
132.92451
  0
VERTEX
  5
e1
  8
Layer_0
  10
553.73438
  20
132.88846
  0
VERTEX
  5
e2
  8
Layer_0
  10
553.92268
  20
132.85986
  0
VERTEX
  5
e3
  8
Layer_0
  10
554.08331
  20
132.8393
  0
VERTEX
  5
e4
  8
Layer_0
  10
554.21373
  20
132.82738
  0
VERTEX
  5
e5
  8
Layer_0
  10
554.31141
  20
132.82469
  0
VERTEX
  5
e6
  8
Layer_0
  10
554.3738
  20
132.83182
  0
VERTEX
  5
e7
  8
Layer_0
  10
554.39836
  20
132.84935
  42
0.0095130329
  0
VERTEX
  5
e8
  8
Layer_0
  10
554.8699
  20
135.09796
  0
VERTEX
  5
e9
  8
Layer_0
  10
555.12875
  20
136.41083
  0
VERTEX
  5
ea
  8
Layer_0
  10
557.82712
  20
150.23666
  0
VERTEX
  5
eb
  8
Layer_0
  10
558.19733
  20
152.15167
  42
-0.000680141
  0
VERTEX
  5
ec
  8
Layer_0
  10
558.8165
  20
155.20908
  0
VERTEX
  5
ed
  8
Layer_0
  10
558.84494
  20
155.36893
  42
0.049755995
  0
VERTEX
  5
ee
  8
Layer_0
  10
558.9603
  20
157.05725
  42
0.04359574
  0
VERTEX
  5
ef
  8
Layer_0
  10
558.89398
  20
158.03033
  42
0.082343134
  0
VERTEX
  5
f0
  8
Layer_0
  10
558.28793
  20
159.56384
  42
0.016863391
  0
VERTEX
  5
f1
  8
Layer_0
  10
557.68076
  20
160.30414
  42
0.0031995224
  0
VERTEX
  5
f2
  8
Layer_0
  10
555.0892
  20
163.31845
  0
VERTEX
  5
f3
  8
Layer_0
  10
553.13339
  20
165.56482
  0
VERTEX
  5
f4
  8
Layer_0
  10
551.05344
  20
167.96082
  0
VERTEX
  5
f5
  8
Layer_0
  10
550.50378
  20
168.60437
  0
VERTEX
  5
f6
  8
Layer_0
  10
552.55859
  20
171.3436
  0
VERTEX
  5
f7
  8
Layer_0
  10
554.61679
  20
174.08221
  0
VERTEX
  5
f8
  8
Layer_0
  10
556.67957
  20
176.81995
  0
VERTEX
  5
f9
  8
Layer_0
  10
558.74573
  20
179.55698
  0
VERTEX
  5
fa
  8
Layer_0
  10
561.51282
  20
176.36667
  42
0.0080365938
  0
VERTEX
  5
fb
  8
Layer_0
  10
564.16626
  20
173.38437
  42
0.032207744
  0
VERTEX
  5
fc
  8
Layer_0
  10
564.56235
  20
172.98633
  42
0.13758324
  0
VERTEX
  5
fd
  8
Layer_0
  10
565.96838
  20
172.49326
  42
0.13680954
  0
VERTEX
  5
fe
  8
Layer_0
  10
567.40851
  20
172.83597
  42
0.059983019
  0
VERTEX
  5
ff
  8
Layer_0
  10
568.10611
  20
173.31699
  42
0.012425774
  0
VERTEX
  5
100
  8
Layer_0
  10
569.09387
  20
174.39902
  42
0.0060342965
  0
VERTEX
  5
101
  8
Layer_0
  10
577.01282
  20
183.58463
  42
0.017177575
  0
VERTEX
  5
102
  8
Layer_0
  10
577.54681
  20
184.25345
  42
0.061799928
  0
VERTEX
  5
103
  8
Layer_0
  10
577.56253
  20
184.27896
  42
0.13347859
  0
VERTEX
  5
104
  8
Layer_0
  10
577.94293
  20
186.17792
  42
0.11198117
  0
VERTEX
  5
105
  8
Layer_0
  10
577.49103
  20
187.75626
  42
0.11093441
  0
VERTEX
  5
106
  8
Layer_0
  10
576.31769
  20
188.94989
  42
0.086940903
  0
VERTEX
  5
107
  8
Layer_0
  10
575.62415
  20
189.20963
  42
0.20359113
  0
VERTEX
  5
108
  8
Layer_0
  10
573.58868
  20
188.78033
  42
0.037149187
  0
VERTEX
  5
109
  8
Layer_0
  10
573.43146
  20
188.65512
  42
0.012054863
  0
VERTEX
  5
10a
  8
Layer_0
  10
572.47284
  20
187.60345
  42
0.002694125
  0
VERTEX
  5
10b
  8
Layer_0
  10
568.96033
  20
183.60583
  0
VERTEX
  5
10c
  8
Layer_0
  10
568.14246
  20
182.67279
  42
-0.0056810374
  0
VERTEX
  5
10d
  8
Layer_0
  10
566.22455
  20
180.51486
  42
-0.040967339
  0
VERTEX
  5
10e
  8
Layer_0
  10
566.09952
  20
180.38745
  42
-0.064605784
  0
VERTEX
  5
10f
  8
Layer_0
  10
566.08267
  20
180.40186
  42
-0.0086048012
  0
VERTEX
  5
110
  8
Layer_0
  10
565.21158
  20
181.36902
  42
-0.0018353086
  0
VERTEX
  5
111
  8
Layer_0
  10
561.05255
  20
186.11954
  0
VERTEX
  5
112
  8
Layer_0
  10
562.65961
  20
187.51736
  0
VERTEX
  5
113
  8
Layer_0
  10
562.69821
  20
187.50284
  42
0.2448351
  0
VERTEX
  5
114
  8
Layer_0
  10
570.08542
  20
188.4939
  42
0.18428863
  0
VERTEX
  5
115
  8
Layer_0
  10
573.13815
  20
193.03799
  42
0.18754025
  0
VERTEX
  5
116
  8
Layer_0
  10
572.38324
  20
198.10556
  42
0.17533315
  0
VERTEX
  5
117
  8
Layer_0
  10
568.48456
  20
201.5271
  42
0.048125123
  0
VERTEX
  5
118
  8
Layer_0
  10
566.78281
  20
202.02869
  42
0.039394842
  0
VERTEX
  5
119
  8
Layer_0
  10
565.65924
  20
202.09933
  42
0.0026841538
  0
VERTEX
  5
11a
  8
Layer_0
  10
565.32727
  20
202.10013
  0
SEQEND
  0
CIRCLE
  5
11c
  8
Layer_0
  62
0
  10
551.51599
  20
136.60501
  30
0
  40
1.5
  0
ENDSEC
  0
EOF
